<svg xmlns="http://www.w3.org/2000/svg" xmlns:xlink="http://www.w3.org/1999/xlink" width="500" zoomAndPan="magnify" viewBox="0 0 375 374.999991" height="500" preserveAspectRatio="xMidYMid meet" version="1.2"><defs><clipPath id="6ae38b1982"><path d="M 75.683594 37.5 L 299.183594 37.5 L 299.183594 337.5 L 75.683594 337.5 Z M 75.683594 37.5 "/></clipPath></defs><g id="3f936a7d0b"><g clip-rule="nonzero" clip-path="url(#6ae38b1982)"><path style=" stroke:none;fill-rule:nonzero;fill:#000000;fill-opacity:1;" d="M 294.175781 60.753906 L 286.746094 60.753906 L 271.726562 39.621094 C 270.761719 38.257812 269.230469 37.527344 267.671875 37.515625 L 107.175781 37.515625 C 105.363281 37.515625 103.773438 38.488281 102.894531 39.9375 L 88.101562 60.753906 L 80.671875 60.753906 C 77.914062 60.753906 75.683594 62.996094 75.683594 65.75 L 75.683594 98.785156 C 75.683594 101.542969 77.914062 103.777344 80.671875 103.777344 L 87.515625 103.777344 L 92.34375 143.195312 L 85.539062 143.195312 L 84.929688 143.230469 C 82.195312 143.5625 80.253906 146.050781 80.582031 148.789062 L 94.269531 260.550781 C 94.488281 263.109375 96.628906 265.109375 99.238281 265.109375 L 107.265625 265.109375 L 115.570312 332.917969 C 115.789062 335.476562 117.929688 337.476562 120.539062 337.476562 L 254.285156 337.476562 C 256.773438 337.476562 258.925781 335.625 259.234375 333.089844 L 267.558594 265.101562 L 275.585938 265.101562 C 278.074219 265.101562 280.226562 263.25 280.535156 260.714844 L 294.21875 148.96875 C 294.265625 148.707031 294.28125 148.445312 294.28125 148.171875 C 294.28125 145.414062 292.046875 143.179688 289.289062 143.179688 L 282.484375 143.179688 L 287.308594 103.769531 L 294.152344 103.769531 C 296.910156 103.769531 299.144531 101.535156 299.144531 98.777344 L 299.144531 65.75 C 299.167969 62.996094 296.933594 60.753906 294.175781 60.753906 Z M 249.886719 327.503906 L 124.960938 327.503906 L 117.316406 265.117188 L 257.523438 265.117188 Z M 109.730469 47.496094 L 265.125 47.496094 L 274.546875 60.753906 L 100.308594 60.753906 Z M 271.195312 255.128906 L 263.175781 255.128906 C 263.175781 255.128906 263.167969 255.128906 263.167969 255.128906 L 103.652344 255.128906 L 91.167969 153.175781 L 283.675781 153.175781 Z M 249.128906 143.1875 L 102.386719 143.1875 L 97.558594 103.769531 L 277.289062 103.769531 L 272.460938 143.1875 Z M 289.183594 93.789062 L 85.65625 93.789062 L 85.65625 70.742188 L 289.175781 70.742188 L 289.175781 93.789062 Z M 187.425781 238.539062 C 195.652344 238.539062 203.042969 234.550781 208.351562 228.09375 C 213.433594 221.914062 216.578125 213.441406 216.578125 204.148438 C 216.578125 194.863281 213.433594 186.390625 208.351562 180.203125 C 203.042969 173.753906 195.644531 169.757812 187.425781 169.757812 C 179.195312 169.757812 171.804688 173.746094 166.5 180.203125 C 161.417969 186.382812 158.269531 194.855469 158.269531 204.148438 C 158.269531 213.433594 161.417969 221.90625 166.5 228.09375 C 171.796875 234.542969 179.195312 238.539062 187.425781 238.539062 Z M 200.675781 186.523438 C 204.332031 190.980469 206.605469 197.203125 206.605469 204.148438 C 206.605469 211.09375 204.339844 217.324219 200.675781 221.773438 C 199.207031 223.5625 197.503906 225.054688 195.640625 226.179688 C 196.507812 223.632812 197.03125 220.855469 197.03125 217.714844 C 197.03125 214.226562 196.359375 211.136719 195.308594 208.371094 C 194.296875 205.699219 192.941406 203.382812 191.515625 201.3125 C 190.445312 199.761719 189.515625 198.195312 188.863281 196.535156 L 188.78125 196.3125 C 188.160156 194.660156 187.792969 192.800781 187.792969 190.574219 C 187.792969 188.363281 188.203125 186.441406 188.847656 184.742188 C 189.46875 183.105469 190.324219 181.613281 191.246094 180.234375 C 194.859375 181.179688 198.113281 183.414062 200.675781 186.523438 Z M 174.171875 186.523438 C 175.648438 184.726562 177.359375 183.226562 179.230469 182.101562 C 178.363281 184.648438 177.816406 187.453125 177.816406 190.582031 C 177.816406 194.054688 178.4375 197.070312 179.472656 199.828125 L 179.578125 200.089844 C 180.566406 202.640625 181.871094 204.859375 183.332031 206.984375 C 184.359375 208.46875 185.316406 210.09375 186 211.894531 C 186.644531 213.589844 187.058594 215.515625 187.058594 217.730469 C 187.058594 219.964844 186.683594 221.839844 186.066406 223.488281 C 185.46875 225.085938 184.597656 226.585938 183.601562 228.070312 C 179.996094 227.132812 176.738281 224.90625 174.171875 221.785156 C 170.515625 217.332031 168.246094 211.109375 168.246094 204.164062 C 168.246094 197.203125 170.507812 190.980469 174.171875 186.523438 Z M 174.171875 186.523438 "/></g></g></svg>