<svg xmlns="http://www.w3.org/2000/svg" xmlns:xlink="http://www.w3.org/1999/xlink" width="500" zoomAndPan="magnify" viewBox="0 0 375 374.999991" height="500" preserveAspectRatio="xMidYMid meet" version="1.2"><defs><clipPath id="964caf6905"><path d="M 83 130 L 337.5 130 L 337.5 311 L 83 311 Z M 83 130 "/></clipPath></defs><g id="d6737fb192"><g clip-rule="nonzero" clip-path="url(#964caf6905)"><path style=" stroke:none;fill-rule:nonzero;fill:#000000;fill-opacity:1;" d="M 336.230469 177.914062 C 327.796875 163.171875 319.363281 148.429688 310.929688 133.6875 C 309.378906 130.976562 306.765625 130.335938 304.445312 130.980469 C 303.417969 131.160156 302.394531 131.632812 301.445312 132.464844 C 293.371094 139.550781 285.296875 146.636719 277.226562 153.71875 C 262.417969 166.714844 244.953125 174.394531 225.441406 176.953125 C 203.328125 179.851562 182.726562 190.191406 168.28125 207.414062 C 161.808594 215.132812 155.824219 222.871094 147.796875 229.132812 C 139.59375 235.539062 130.257812 240.410156 120.40625 243.722656 C 109.652344 247.335938 98.847656 250.816406 88.074219 254.367188 C 84.367188 255.582031 82.445312 259.722656 84.464844 263.238281 C 92.894531 277.980469 101.332031 292.722656 109.761719 307.464844 C 111.03125 309.683594 114.082031 311.066406 116.585938 310.238281 C 126.933594 306.832031 137.285156 303.4375 147.632812 300.015625 C 167.480469 293.449219 184.976562 281.886719 197.984375 265.421875 C 211.445312 248.382812 228.394531 236.582031 250.25 233.332031 C 260.777344 231.765625 270.777344 229.925781 280.675781 225.808594 C 291.332031 221.375 300.929688 215.28125 309.648438 207.738281 C 318.246094 200.296875 326.742188 192.734375 335.292969 185.238281 C 337.292969 183.472656 337.492188 180.132812 336.230469 177.914062 Z M 302.519531 197.945312 C 287.707031 210.941406 270.246094 218.621094 250.734375 221.179688 C 228.621094 224.078125 208.019531 234.417969 193.574219 251.640625 C 187.101562 259.355469 181.117188 267.097656 173.089844 273.359375 C 164.886719 279.765625 155.550781 284.636719 145.699219 287.945312 C 136.40625 291.070312 127.089844 294.09375 117.773438 297.148438 C 115.160156 292.578125 112.546875 288.011719 109.933594 283.449219 C 118.347656 280.683594 126.753906 277.910156 135.167969 275.144531 C 142.519531 272.722656 139.375 261.050781 131.957031 263.496094 C 122.578125 266.585938 113.199219 269.675781 103.820312 272.761719 C 102.078125 269.714844 100.328125 266.664062 98.585938 263.617188 C 106.496094 261.015625 114.410156 258.414062 122.320312 255.804688 C 142.171875 249.238281 159.664062 237.675781 172.671875 221.207031 C 186.132812 204.171875 203.085938 192.371094 224.941406 189.121094 C 235.464844 187.550781 245.464844 185.714844 255.363281 181.59375 C 266.019531 177.164062 275.621094 171.066406 284.335938 163.523438 C 290.972656 157.78125 297.546875 151.972656 304.136719 146.171875 C 305.882812 149.230469 307.636719 152.289062 309.386719 155.347656 C 298.933594 164.777344 288.566406 175.035156 276.796875 182.613281 C 264.398438 190.59375 250.714844 194.957031 236.175781 196.882812 C 220.757812 198.929688 206.167969 204.546875 193.742188 213.976562 C 180.550781 223.976562 172.203125 238.40625 159.363281 248.808594 C 153.316406 253.703125 161.914062 262.207031 167.90625 257.347656 C 179.21875 248.183594 186.636719 235.675781 197.605469 226.261719 C 208.734375 216.71875 222.65625 210.851562 237.125 208.835938 C 252.429688 206.707031 266.824219 202.699219 280.195312 194.714844 C 288.507812 189.746094 295.667969 183.375 302.90625 177.027344 C 307.101562 173.347656 311.289062 169.667969 315.484375 165.992188 C 318.097656 170.5625 320.710938 175.128906 323.324219 179.695312 C 316.382812 185.773438 309.449219 191.863281 302.519531 197.945312 Z M 302.519531 197.945312 "/></g><path style=" stroke:none;fill-rule:nonzero;fill:#000000;fill-opacity:1;" d="M 153.023438 198.898438 C 166.484375 181.863281 183.4375 170.058594 205.292969 166.808594 C 215.816406 165.242188 225.816406 163.40625 235.714844 159.285156 C 246.371094 154.851562 255.972656 148.757812 264.691406 141.214844 C 273.289062 133.773438 281.785156 126.210938 290.335938 118.714844 C 292.34375 116.949219 292.546875 113.609375 291.277344 111.398438 C 282.847656 96.65625 274.410156 81.914062 265.976562 67.171875 C 264.425781 64.457031 261.8125 63.820312 259.492188 64.464844 C 258.464844 64.644531 257.441406 65.113281 256.484375 65.949219 C 248.414062 73.035156 240.339844 80.117188 232.265625 87.203125 C 217.457031 100.199219 199.992188 107.878906 180.484375 110.4375 C 158.371094 113.335938 137.769531 123.675781 123.324219 140.898438 C 116.851562 148.617188 110.863281 156.355469 102.839844 162.617188 C 94.636719 169.023438 85.296875 173.894531 75.449219 177.203125 C 64.695312 180.816406 53.890625 184.300781 43.113281 187.847656 C 39.410156 189.066406 37.488281 193.203125 39.503906 196.722656 C 47.9375 211.464844 56.371094 226.207031 64.804688 240.949219 C 66.074219 243.167969 69.121094 244.550781 71.628906 243.722656 C 81.976562 240.316406 92.328125 236.921875 102.671875 233.5 C 122.523438 226.929688 140.019531 215.363281 153.023438 198.898438 Z M 72.828125 230.621094 C 70.226562 226.074219 67.625 221.523438 65.023438 216.980469 C 77.660156 213.03125 90.578125 209.28125 102.492188 203.695312 C 116.796875 196.992188 129.402344 186.789062 139.160156 174.402344 C 147.875 163.332031 157.75 154.246094 170.710938 148.347656 C 177.78125 145.132812 185.375 143.238281 193.050781 142.1875 C 202.492188 140.894531 211.535156 138.953125 220.429688 135.449219 C 227.582031 132.628906 224.464844 120.9375 217.21875 123.800781 C 209.558594 126.824219 201.660156 128.949219 193.492188 130.050781 C 186.730469 130.964844 180.113281 132.074219 173.632812 134.285156 C 158.84375 139.34375 145.339844 148.246094 135.167969 160.15625 C 131.191406 164.804688 127.671875 169.769531 123.382812 174.164062 C 117.785156 179.898438 111.503906 184.84375 104.605469 188.921875 C 96.253906 193.867188 87.308594 196.859375 78.167969 199.871094 C 71.734375 201.988281 65.304688 204.105469 58.878906 206.222656 C 57.136719 203.175781 55.386719 200.121094 53.644531 197.074219 C 61.558594 194.476562 69.46875 191.875 77.378906 189.261719 C 97.230469 182.695312 114.726562 171.132812 127.734375 154.667969 C 141.191406 137.628906 158.144531 125.828125 180 122.578125 C 190.523438 121.011719 200.523438 119.171875 210.421875 115.054688 C 221.078125 110.621094 230.679688 104.527344 239.398438 96.984375 C 246.03125 91.242188 252.605469 85.433594 259.195312 79.628906 C 260.9375 82.675781 262.683594 85.730469 264.425781 88.777344 C 256.980469 95.308594 249.539062 101.84375 242.09375 108.375 C 236.242188 113.515625 244.816406 122.03125 250.636719 116.914062 C 257.265625 111.09375 263.902344 105.273438 270.53125 99.457031 C 273.144531 104.027344 275.757812 108.59375 278.371094 113.164062 C 271.4375 119.246094 264.503906 125.335938 257.566406 131.417969 C 242.757812 144.410156 225.292969 152.09375 205.78125 154.652344 C 183.667969 157.546875 163.066406 167.890625 148.621094 185.113281 C 142.148438 192.828125 136.164062 200.570312 128.136719 206.832031 C 119.933594 213.234375 110.597656 218.109375 100.746094 221.417969 C 91.460938 224.542969 82.136719 227.566406 72.828125 230.621094 Z M 72.828125 230.621094 "/></g></svg>