<svg xmlns="http://www.w3.org/2000/svg" xmlns:xlink="http://www.w3.org/1999/xlink" width="500" zoomAndPan="magnify" viewBox="0 0 375 374.999991" height="500" preserveAspectRatio="xMidYMid meet" version="1.2"><defs><clipPath id="e9b3fe830a"><path d="M 93 38 L 283 38 L 283 337.5 L 93 337.5 Z M 93 38 "/></clipPath></defs><g id="8492c1fdc8"><g clip-rule="nonzero" clip-path="url(#e9b3fe830a)"><path style=" stroke:none;fill-rule:nonzero;fill:#000000;fill-opacity:1;" d="M 220.234375 161.234375 C 225.675781 161.234375 225.675781 152.789062 220.234375 152.789062 C 214.804688 152.789062 214.792969 161.234375 220.234375 161.234375 Z M 238.402344 176.714844 C 243.84375 176.714844 243.855469 168.269531 238.402344 168.269531 C 232.972656 168.269531 232.960938 176.714844 238.402344 176.714844 Z M 132.628906 200.914062 C 138.0625 200.914062 138.074219 192.46875 132.628906 192.46875 C 127.195312 192.46875 127.183594 200.914062 132.628906 200.914062 Z M 210.226562 187.535156 C 215.667969 187.535156 215.667969 179.085938 210.226562 179.085938 C 204.796875 179.085938 204.785156 187.535156 210.226562 187.535156 Z M 141.332031 161.234375 C 146.765625 161.234375 146.773438 152.789062 141.332031 152.789062 C 135.894531 152.789062 135.886719 161.234375 141.332031 161.234375 Z M 155.339844 149.804688 C 160.777344 149.804688 160.785156 141.355469 155.339844 141.355469 C 149.90625 141.355469 149.898438 149.804688 155.339844 149.804688 Z M 163.167969 95.195312 C 168.601562 95.195312 168.613281 86.75 163.167969 86.75 C 157.734375 86.75 157.726562 95.195312 163.167969 95.195312 Z M 226.667969 110.4375 C 232.097656 110.4375 232.105469 101.988281 226.667969 101.988281 C 221.226562 101.988281 221.214844 110.4375 226.667969 110.4375 Z M 272.429688 224.46875 C 271.789062 223.910156 271.304688 223.152344 271.09375 222.191406 C 267.601562 217.246094 261.285156 213.871094 255.441406 213.691406 C 246.257812 213.976562 238.339844 220.503906 237.199219 229.804688 C 237.125 230.40625 237.085938 230.996094 237.019531 231.597656 C 237.011719 231.976562 237 232.367188 236.96875 232.757812 C 235.703125 250.566406 232.519531 268.441406 230.304688 286.15625 C 228.53125 300.351562 226.761719 314.542969 224.988281 328.726562 L 249.546875 328.726562 C 250.601562 324.507812 251.65625 320.292969 252.710938 316.0625 L 268.179688 254.121094 C 269.921875 247.183594 271.652344 240.253906 273.378906 233.316406 C 274.171875 230.164062 273.707031 227.148438 272.429688 224.46875 Z M 125.699219 328.726562 L 150.265625 328.726562 C 149.914062 325.945312 149.566406 323.160156 149.222656 320.375 C 146.226562 296.398438 143.230469 272.40625 140.234375 248.425781 C 139.566406 243.070312 138.421875 237.554688 138.203125 232.15625 C 138.199219 232.136719 138.195312 232.105469 138.191406 232.074219 C 137.863281 221.496094 129.179688 212.933594 118.382812 213.734375 C 110.164062 214.335938 100.882812 222.117188 101.292969 231.007812 C 101.539062 236.4375 104.195312 242.636719 105.503906 247.878906 C 108.382812 259.382812 111.253906 270.898438 114.132812 282.414062 C 117.988281 297.851562 121.84375 313.289062 125.699219 328.726562 Z M 191.855469 328.726562 L 216.546875 328.726562 C 217.117188 324.152344 217.683594 319.5625 218.253906 314.988281 C 221.027344 292.789062 223.800781 270.613281 226.574219 248.425781 C 226.796875 246.65625 227.039062 244.875 227.28125 243.101562 C 227.660156 240.074219 228.039062 237.058594 228.367188 234.023438 C 229.570312 223.109375 221.121094 214.03125 210.230469 213.691406 C 201.054688 213.976562 193.136719 220.492188 191.996094 229.804688 C 191.882812 230.691406 191.851562 231.578125 191.839844 232.460938 C 191.84375 232.566406 191.851562 232.664062 191.851562 232.769531 C 192.1875 264.742188 191.882812 296.746094 191.855469 328.726562 Z M 183.402344 328.726562 L 183.402344 248.628906 C 183.402344 243.621094 183.292969 238.578125 183.382812 233.570312 C 183.136719 222.855469 176.410156 214.039062 165.023438 213.691406 C 152.839844 214.0625 145.667969 224.300781 147.09375 235.699219 C 150.964844 266.703125 154.835938 297.714844 158.707031 328.726562 Z M 109.753906 207.21875 C 122.207031 202.199219 135.5 207.492188 142.214844 217.878906 C 147.109375 210.421875 155.855469 205.53125 165.023438 205.246094 C 174.761719 205.542969 182.933594 210.496094 187.613281 217.984375 C 192.3125 210.476562 200.539062 205.542969 210.230469 205.246094 C 219.425781 205.53125 228.21875 210.488281 233.089844 217.972656 C 237.625 210.488281 245.324219 205.550781 255.445312 205.246094 C 259.78125 205.371094 264.210938 206.667969 268.195312 208.832031 C 266.339844 203.589844 263.554688 198.71875 259.570312 194.710938 C 257.640625 192.769531 255.53125 191.085938 253.148438 189.734375 C 253.0625 189.683594 252.980469 189.640625 252.882812 189.585938 C 241.050781 199.964844 222.882812 203.789062 207.085938 203.613281 C 201.644531 203.558594 201.644531 195.113281 207.085938 195.164062 C 226.859375 195.386719 252.367188 189.28125 256.636719 166.777344 C 259.507812 151.65625 251.269531 136.042969 236.699219 131.378906 C 230.929688 135.8125 223.570312 139.585938 216.628906 139.730469 C 211.1875 139.851562 211.210938 131.402344 216.628906 131.289062 C 221.25 131.1875 226.773438 128.527344 231.425781 124.914062 C 231.960938 123.789062 232.933594 122.863281 234.21875 122.535156 C 236.433594 120.457031 238.300781 118.203125 239.542969 116.007812 C 246.484375 103.804688 236.824219 88.308594 227.15625 80.597656 C 216.503906 72.113281 202.382812 72.109375 189.472656 73.210938 C 177.675781 74.222656 167.566406 71.546875 161.324219 60.714844 C 160.007812 58.429688 158.933594 55.949219 158.089844 53.382812 C 151.738281 63.074219 146.421875 73.863281 145.65625 85.359375 C 143.917969 111.347656 170.085938 126.980469 192.625 131.4375 C 197.964844 132.492188 195.691406 140.636719 190.382812 139.585938 C 186.605469 138.835938 182.882812 137.648438 179.265625 136.351562 C 167.773438 132.222656 156.113281 125.957031 147.953125 116.625 C 138.316406 121.855469 127.539062 129.140625 125.003906 140.203125 C 123.226562 147.976562 126.75 155.578125 131.300781 161.714844 C 132.34375 163.117188 133.464844 164.488281 134.644531 165.828125 C 135.238281 166.175781 135.699219 166.726562 136.027344 167.367188 C 142.191406 173.96875 149.765625 179.609375 157.476562 183.957031 C 162.21875 186.625 157.957031 193.921875 153.214844 191.253906 C 149.839844 189.355469 146.621094 187.128906 143.503906 184.832031 C 139.496094 181.867188 135.394531 178.558594 131.617188 174.886719 C 130.886719 175.257812 130.160156 175.625 129.441406 176.027344 C 125.945312 177.945312 122.597656 180.160156 119.609375 182.816406 C 112.027344 189.554688 108.273438 197.8125 109.753906 207.21875 Z M 281.953125 233.855469 C 278.621094 251.761719 273.042969 269.539062 268.625 287.210938 C 264.722656 302.828125 260.820312 318.457031 256.917969 334.074219 C 256.476562 335.867188 254.671875 337.175781 252.847656 337.175781 L 122.398438 337.175781 C 120.578125 337.175781 118.773438 335.867188 118.324219 334.074219 C 116.324219 326.050781 114.316406 318.035156 112.3125 310.011719 C 106.265625 285.777344 100.207031 261.546875 94.15625 237.300781 C 91.808594 227.917969 94.945312 218.195312 102.078125 211.921875 C 97.136719 193.085938 109.445312 177.007812 125.675781 168.414062 C 121.636719 163.371094 118.460938 157.761719 116.960938 151.539062 C 112.335938 132.296875 127.667969 118.476562 142.976562 109.761719 C 142.683594 109.269531 142.378906 108.777344 142.105469 108.265625 C 129.824219 85.382812 142.675781 59.644531 156.59375 40.832031 C 159.085938 37.472656 164.167969 38.589844 164.46875 42.964844 C 164.601562 44.957031 165.230469 47.902344 166.097656 50.644531 C 167.683594 55.644531 170.484375 60.726562 175.226562 63.335938 C 181.414062 66.738281 188.929688 64.644531 195.601562 64.359375 C 202.476562 64.066406 209.507812 64.359375 216.203125 66.0625 C 230.945312 69.804688 241.976562 81.148438 247.820312 94.929688 C 252.277344 105.464844 250.496094 116.441406 243.527344 124.917969 C 259.417969 132.183594 267.90625 150.433594 264.964844 167.949219 C 263.984375 173.820312 261.8125 178.851562 258.785156 183.113281 C 270.945312 190.378906 277.164062 205.289062 279.09375 218.964844 C 281.730469 223.308594 282.964844 228.414062 281.953125 233.855469 Z M 179.5625 199.203125 C 177.480469 198.253906 176.984375 195.238281 178.046875 193.425781 C 179.277344 191.316406 181.75 190.96875 183.828125 191.917969 C 181.855469 191.011719 184 191.90625 184.609375 192.085938 C 186.582031 192.644531 188.597656 193.046875 190.613281 193.402344 C 192.871094 193.824219 194.128906 196.558594 193.5625 198.601562 C 192.921875 200.945312 190.609375 201.957031 188.371094 201.554688 C 185.394531 201.015625 182.332031 200.46875 179.5625 199.203125 "/></g></g></svg>