<svg xmlns="http://www.w3.org/2000/svg" xmlns:xlink="http://www.w3.org/1999/xlink" width="500" zoomAndPan="magnify" viewBox="0 0 375 374.999991" height="500" preserveAspectRatio="xMidYMid meet" version="1.2"><defs><clipPath id="7f773297d4"><path d="M 37.820312 42.953125 L 336.816406 42.953125 L 336.816406 331.703125 L 37.820312 331.703125 Z M 37.820312 42.953125 "/></clipPath></defs><g id="739af7d20d"><g clip-rule="nonzero" clip-path="url(#7f773297d4)"><path style=" stroke:none;fill-rule:nonzero;fill:#000000;fill-opacity:1;" d="M 224.476562 44.160156 C 216.429688 51.929688 213.480469 64.257812 218.84375 74.3125 C 223.242188 82.5625 232.34375 87.183594 230.15625 97.875 C 229.351562 101.84375 227.257812 105.9375 224.476562 108.910156 C 220.765625 112.894531 226.738281 118.894531 230.472656 114.902344 C 238.011719 106.824219 241.425781 94.636719 236.699219 84.328125 C 232.914062 76.085938 222.859375 71.097656 224.65625 60.820312 C 225.34375 56.882812 227.585938 52.929688 230.472656 50.148438 C 234.40625 46.355469 228.410156 40.371094 224.476562 44.160156 Z M 194.765625 44.160156 C 186.710938 51.929688 183.769531 64.257812 189.132812 74.3125 C 193.53125 82.5625 202.621094 87.183594 200.445312 97.875 C 199.640625 101.84375 197.546875 105.9375 194.765625 108.910156 C 191.054688 112.894531 197.03125 118.894531 200.761719 114.902344 C 208.300781 106.824219 211.714844 94.636719 206.988281 84.328125 C 203.203125 76.085938 193.140625 71.097656 194.945312 60.820312 C 195.632812 56.882812 197.875 52.929688 200.761719 50.148438 C 204.683594 46.355469 198.691406 40.371094 194.765625 44.160156 Z M 165.058594 44.160156 C 157 51.929688 154.050781 64.257812 159.410156 74.3125 C 163.808594 82.5625 172.914062 87.183594 170.734375 97.875 C 169.921875 101.84375 167.835938 105.9375 165.058594 108.910156 C 161.335938 112.894531 167.320312 118.894531 171.042969 114.902344 C 178.589844 106.824219 181.996094 94.636719 177.269531 84.328125 C 173.492188 76.085938 163.429688 71.097656 165.226562 60.820312 C 165.914062 56.882812 168.164062 52.929688 171.042969 50.148438 C 174.972656 46.355469 168.980469 40.371094 165.058594 44.160156 Z M 273.144531 153.570312 C 259.972656 162.84375 246.785156 172.125 233.613281 181.398438 C 239.46875 182.402344 245.371094 181.3125 250.890625 176.949219 C 261.875 168.226562 285.261719 161.691406 301.269531 166.238281 C 307.507812 168.011719 312.191406 171.355469 315.058594 175.984375 C 323.671875 172.804688 325.988281 170.148438 325.988281 169.304688 C 325.988281 167.855469 319.421875 161.320312 287.292969 155.726562 C 282.820312 154.945312 278.082031 154.238281 273.144531 153.570312 Z M 325.535156 180.636719 C 325.28125 180.773438 325.015625 180.914062 324.753906 181.050781 C 324.59375 181.125 324.457031 181.207031 324.296875 181.292969 C 323.851562 181.515625 323.386719 181.726562 322.914062 181.949219 C 322.816406 182 322.699219 182.042969 322.605469 182.097656 C 322.171875 182.296875 321.726562 182.488281 321.273438 182.6875 C 321.0625 182.773438 320.839844 182.859375 320.617188 182.953125 C 320.269531 183.101562 319.929688 183.238281 319.5625 183.386719 C 319.308594 183.480469 319.03125 183.585938 318.757812 183.691406 C 318.417969 183.820312 318.070312 183.957031 317.710938 184.085938 C 317.425781 184.191406 317.109375 184.296875 316.800781 184.402344 C 316.453125 184.527344 316.09375 184.65625 315.722656 184.78125 C 315.394531 184.886719 315.058594 185.003906 314.71875 185.109375 C 314.347656 185.238281 313.96875 185.351562 313.578125 185.480469 C 313.226562 185.585938 312.867188 185.703125 312.507812 185.808594 C 312.097656 185.933594 311.695312 186.050781 311.273438 186.175781 C 310.902344 186.285156 310.519531 186.390625 310.128906 186.503906 C 309.695312 186.621094 309.261719 186.75 308.808594 186.863281 C 308.417969 186.96875 308.003906 187.085938 307.59375 187.191406 C 307.125 187.320312 306.660156 187.4375 306.175781 187.5625 C 305.753906 187.65625 305.339844 187.761719 304.894531 187.878906 C 304.398438 187.996094 303.882812 188.125 303.351562 188.238281 C 302.917969 188.34375 302.484375 188.449219 302.03125 188.554688 C 301.480469 188.671875 300.921875 188.808594 300.347656 188.925781 C 299.894531 189.03125 299.449219 189.128906 298.984375 189.222656 C 298.382812 189.347656 297.75 189.488281 297.125 189.613281 C 296.671875 189.710938 296.214844 189.804688 295.75 189.898438 C 295.042969 190.035156 294.3125 190.175781 293.574219 190.3125 C 293.160156 190.394531 292.757812 190.46875 292.347656 190.554688 C 291.171875 190.765625 289.976562 190.988281 288.742188 191.199219 C 263.003906 195.683594 229.371094 198.273438 193.359375 198.578125 C 190.960938 198.601562 188.550781 198.613281 186.128906 198.613281 C 183.707031 198.613281 181.296875 198.601562 178.898438 198.578125 C 142.890625 198.273438 109.253906 195.683594 83.523438 191.199219 C 82.289062 190.988281 81.09375 190.765625 79.921875 190.554688 C 79.507812 190.46875 79.109375 190.394531 78.695312 190.324219 C 77.960938 190.175781 77.222656 190.035156 76.511719 189.898438 C 76.042969 189.804688 75.601562 189.710938 75.144531 189.613281 C 74.515625 189.488281 73.886719 189.347656 73.277344 189.222656 C 72.816406 189.128906 72.375 189.03125 71.921875 188.925781 C 71.351562 188.808594 70.785156 188.671875 70.234375 188.554688 C 69.78125 188.449219 69.34375 188.34375 68.90625 188.238281 C 68.386719 188.125 67.871094 187.996094 67.367188 187.878906 C 66.933594 187.761719 66.507812 187.65625 66.085938 187.5625 C 65.609375 187.4375 65.132812 187.320312 64.671875 187.191406 C 64.257812 187.085938 63.851562 186.96875 63.453125 186.863281 C 63.003906 186.75 62.566406 186.621094 62.132812 186.503906 C 61.75 186.390625 61.367188 186.285156 60.992188 186.175781 C 60.574219 186.050781 60.164062 185.933594 59.765625 185.808594 C 59.398438 185.703125 59.035156 185.585938 58.6875 185.480469 C 58.296875 185.351562 57.921875 185.238281 57.546875 185.109375 C 57.207031 185.003906 56.871094 184.886719 56.542969 184.78125 C 56.171875 184.65625 55.820312 184.527344 55.464844 184.410156 C 55.160156 184.296875 54.84375 184.191406 54.546875 184.085938 C 54.191406 183.957031 53.855469 183.820312 53.511719 183.691406 C 53.242188 183.585938 52.960938 183.480469 52.703125 183.386719 C 52.347656 183.238281 52.007812 183.101562 51.667969 182.964844 C 51.441406 182.867188 51.207031 182.773438 50.988281 182.679688 C 50.550781 182.5 50.136719 182.308594 49.722656 182.117188 C 49.578125 182.054688 49.425781 181.992188 49.285156 181.917969 C 48.832031 181.707031 48.394531 181.503906 47.976562 181.292969 C 47.808594 181.207031 47.65625 181.125 47.492188 181.039062 C 47.238281 180.902344 46.976562 180.773438 46.734375 180.636719 C 52.523438 252.46875 112.835938 309.152344 186.128906 309.152344 C 259.429688 309.152344 319.738281 252.46875 325.535156 180.636719 Z M 224.488281 312.566406 C 212.253906 315.84375 199.398438 317.609375 186.128906 317.609375 C 172.871094 317.609375 160.011719 315.84375 147.769531 312.566406 L 147.769531 323.277344 L 224.488281 323.277344 Z M 46.277344 169.304688 C 46.277344 170.402344 50.109375 174.453125 66.136719 178.796875 C 67.804688 173.914062 71.226562 166.765625 77.730469 162.8125 C 82.507812 159.902344 88.003906 159.226562 94.078125 160.824219 C 101.601562 162.8125 106.746094 165.941406 110.875 168.46875 C 118.039062 172.84375 121.988281 175.246094 133.816406 170.371094 C 137.074219 169.027344 140.457031 167.496094 144.039062 165.867188 C 163.734375 156.933594 188.234375 145.820312 205.425781 163.507812 C 210.765625 168.984375 217.117188 174.453125 223.832031 177.953125 C 224.160156 177.730469 224.488281 177.496094 224.804688 177.273438 C 227.3125 174.027344 229.828125 170.792969 232.332031 167.558594 C 236.6875 161.921875 241.054688 156.296875 245.410156 150.671875 C 227.046875 149.214844 206.9375 148.441406 186.128906 148.441406 C 147.886719 148.441406 111.957031 151.03125 84.972656 155.726562 C 52.847656 161.320312 46.277344 167.855469 46.277344 169.304688 Z M 156.261719 186.335938 C 154.167969 187.5 152.09375 188.503906 150.0625 189.351562 C 161.695312 189.878906 173.789062 190.152344 186.128906 190.152344 C 192.039062 190.152344 197.886719 190.078125 203.667969 189.960938 C 195 182.753906 178.378906 174.050781 156.261719 186.335938 Z M 228.980469 189.023438 C 227.710938 188.671875 226.433594 188.238281 225.132812 187.753906 C 224.679688 187.667969 224.234375 187.5 223.820312 187.246094 C 215.957031 183.957031 207.71875 177.996094 199.367188 169.398438 C 186.320312 155.980469 166.601562 164.925781 147.539062 173.574219 C 143.878906 175.234375 140.433594 176.800781 137.042969 178.195312 C 121.246094 184.707031 114.066406 180.332031 106.46875 175.6875 C 102.425781 173.226562 98.253906 170.675781 91.925781 169.007812 C 88.113281 168.003906 84.90625 168.339844 82.128906 170.03125 C 78.121094 172.476562 75.710938 177.308594 74.414062 180.804688 C 76.105469 181.175781 77.894531 181.546875 79.78125 181.917969 C 80.304688 181.070312 80.972656 180.265625 81.859375 179.558594 C 85.6875 176.523438 91.675781 176.292969 100.167969 178.851562 C 101.476562 179.253906 102.78125 179.652344 104.089844 180.054688 C 119.304688 184.761719 133.675781 189.203125 152.15625 178.933594 C 180.082031 163.425781 200.816406 175.984375 210.691406 184.855469 C 212.570312 186.539062 214.898438 188.113281 217.574219 189.539062 C 221.421875 189.390625 225.238281 189.222656 228.980469 189.023438 Z M 306.523438 178.691406 C 304.738281 176.746094 302.199219 175.296875 298.953125 174.378906 C 286.011719 170.699219 265.308594 176.300781 256.144531 183.566406 C 254.082031 185.203125 251.9375 186.539062 249.714844 187.5625 C 256.015625 187.023438 262.085938 186.398438 267.902344 185.691406 C 275.472656 179.1875 287.292969 169.820312 298.140625 180.742188 C 301.257812 180.054688 304.039062 179.367188 306.523438 178.691406 Z M 255.371094 151.539062 C 252.972656 154.636719 250.570312 157.734375 248.171875 160.824219 C 252.328125 157.90625 256.472656 154.988281 260.617188 152.070312 C 258.894531 151.890625 257.136719 151.710938 255.371094 151.539062 Z M 334.945312 110.085938 C 330.535156 113.1875 326.125 116.289062 321.726562 119.390625 C 308.890625 128.421875 296.058594 137.453125 283.230469 146.484375 C 285.101562 146.777344 286.941406 147.078125 288.742188 147.390625 C 329.710938 154.523438 334.449219 163.308594 334.449219 169.304688 C 334.449219 234.730469 291.859375 290.386719 232.945312 310.03125 L 232.945312 331.738281 L 139.3125 331.738281 L 139.3125 310.03125 C 80.40625 290.386719 37.820312 234.730469 37.820312 169.304688 C 37.820312 163.308594 42.558594 154.523438 83.523438 147.390625 C 110.972656 142.613281 147.410156 139.984375 186.128906 139.984375 C 209.253906 139.984375 231.53125 140.929688 251.585938 142.703125 C 268.671875 120.644531 285.757812 98.589844 302.84375 76.539062 C 306.1875 72.234375 312.136719 78.265625 308.828125 82.527344 C 305.53125 86.785156 302.230469 91.046875 298.933594 95.308594 L 261.472656 143.65625 C 264.730469 144 267.902344 144.375 271 144.761719 C 290.898438 130.769531 310.773438 116.773438 330.671875 102.773438 C 335.144531 99.628906 339.363281 106.976562 334.945312 110.085938 Z M 217.710938 299.671875 C 226.242188 297.28125 234.46875 294.109375 242.417969 290.207031 C 247.316406 287.820312 243.023438 280.511719 238.136719 282.902344 C 230.832031 286.476562 223.292969 289.308594 215.46875 291.507812 C 210.226562 292.976562 212.445312 301.152344 217.710938 299.671875 Z M 263.269531 277.257812 C 258.945312 280.574219 254.738281 273.21875 259 269.941406 C 278.527344 254.90625 293.339844 234.433594 301.585938 211.226562 C 303.40625 206.121094 311.589844 208.332031 309.757812 213.480469 C 300.699219 238.960938 284.679688 260.773438 263.269531 277.257812 "/></g></g></svg>