<svg xmlns="http://www.w3.org/2000/svg" xmlns:xlink="http://www.w3.org/1999/xlink" width="500" zoomAndPan="magnify" viewBox="0 0 375 374.999991" height="500" preserveAspectRatio="xMidYMid meet" version="1.2"><defs><clipPath id="88e329375f"><path d="M 51.703125 37.5 L 323.140625 37.5 L 323.140625 337.335938 L 51.703125 337.335938 Z M 51.703125 37.5 "/></clipPath></defs><g id="75ebdb61bd"><g clip-rule="nonzero" clip-path="url(#88e329375f)"><path style=" stroke:none;fill-rule:nonzero;fill:#000000;fill-opacity:1;" d="M 215.636719 308.992188 C 210.359375 310.476562 208.125 302.285156 213.378906 300.8125 C 220.492188 298.820312 227.34375 296.246094 233.980469 292.992188 C 238.875 290.597656 243.164062 297.921875 238.257812 300.324219 C 230.980469 303.894531 223.445312 306.808594 215.636719 308.992188 Z M 257.289062 288.5 C 252.964844 291.839844 248.738281 284.464844 253.007812 281.179688 C 270.746094 267.5 284.179688 248.914062 291.691406 227.832031 C 293.515625 222.710938 301.714844 224.925781 299.882812 230.085938 C 291.554688 253.460938 276.914062 273.371094 257.289062 288.5 Z M 166.929688 197.824219 C 161.460938 197.824219 161.460938 189.335938 166.929688 189.335938 C 172.398438 189.335938 172.386719 197.824219 166.929688 197.824219 Z M 271.519531 194.367188 C 266.050781 194.367188 266.050781 185.882812 271.519531 185.882812 C 276.988281 185.882812 276.976562 194.367188 271.519531 194.367188 Z M 240.71875 169.234375 C 235.25 169.234375 235.25 160.75 240.71875 160.75 C 246.183594 160.75 246.175781 169.234375 240.71875 169.234375 Z M 200.304688 177.363281 C 194.828125 177.363281 194.839844 168.875 200.304688 168.875 C 205.773438 168.875 205.761719 177.363281 200.304688 177.363281 Z M 107.648438 186.730469 C 102.175781 186.730469 102.183594 178.242188 107.648438 178.242188 C 113.113281 178.242188 113.105469 186.730469 107.648438 186.730469 Z M 143.792969 164.796875 C 138.320312 164.796875 138.332031 156.308594 143.792969 156.308594 C 149.265625 156.308594 149.253906 164.796875 143.792969 164.796875 Z M 211.503906 38.71875 C 215.4375 34.914062 221.445312 40.917969 217.503906 44.71875 C 214.84375 47.292969 212.796875 50.941406 212.269531 54.613281 C 210.921875 63.777344 220.203125 68.398438 223.46875 75.933594 C 227.566406 85.398438 224.367188 96.445312 217.503906 103.792969 C 213.773438 107.800781 207.785156 101.789062 211.503906 97.792969 C 214.039062 95.078125 215.957031 91.320312 216.621094 87.675781 C 218.402344 78.015625 209.832031 73.703125 206.007812 66.109375 C 201.363281 56.90625 204.246094 45.738281 211.503906 38.71875 Z M 184.390625 38.71875 C 188.332031 34.914062 194.328125 40.917969 190.398438 44.71875 C 187.738281 47.292969 185.683594 50.941406 185.152344 54.613281 C 183.820312 63.777344 193.101562 68.398438 196.363281 75.933594 C 200.464844 85.398438 197.253906 96.445312 190.398438 103.792969 C 186.667969 107.800781 180.671875 101.789062 184.390625 97.792969 C 186.933594 95.078125 188.851562 91.320312 189.519531 87.675781 C 191.289062 78.015625 182.726562 73.703125 178.890625 66.109375 C 174.25 56.90625 177.144531 45.738281 184.390625 38.71875 Z M 157.285156 38.71875 C 161.21875 34.914062 167.226562 40.917969 163.285156 44.71875 C 160.625 47.292969 158.578125 50.941406 158.039062 54.613281 C 156.707031 63.777344 165.984375 68.398438 169.25 75.933594 C 173.351562 85.398438 170.148438 96.445312 163.285156 103.792969 C 159.554688 107.800781 153.566406 101.789062 157.285156 97.792969 C 159.820312 95.078125 161.738281 91.320312 162.40625 87.675781 C 164.183594 78.015625 155.613281 73.703125 151.789062 66.109375 C 147.144531 56.90625 150.03125 45.738281 157.285156 38.71875 Z M 187.398438 315.964844 C 120.945312 315.964844 66.226562 264.765625 60.65625 199.742188 C 60.707031 199.761719 60.769531 199.804688 60.828125 199.824219 C 60.996094 199.921875 61.179688 200.007812 61.351562 200.089844 C 61.605469 200.21875 61.863281 200.34375 62.128906 200.472656 C 62.316406 200.558594 62.515625 200.652344 62.710938 200.746094 C 62.984375 200.863281 63.261719 200.992188 63.542969 201.109375 C 63.75 201.203125 63.960938 201.296875 64.175781 201.382812 C 64.472656 201.511719 64.78125 201.636719 65.089844 201.765625 C 65.308594 201.847656 65.53125 201.945312 65.757812 202.03125 C 66.089844 202.15625 66.433594 202.285156 66.78125 202.421875 C 67.011719 202.507812 67.226562 202.582031 67.457031 202.664062 C 67.863281 202.8125 68.289062 202.960938 68.714844 203.109375 C 68.90625 203.175781 69.089844 203.238281 69.285156 203.300781 C 69.917969 203.511719 70.566406 203.734375 71.246094 203.949219 C 71.324219 203.96875 71.410156 203.988281 71.488281 204.011719 C 72.089844 204.203125 72.710938 204.382812 73.347656 204.574219 C 73.585938 204.648438 73.839844 204.710938 74.085938 204.785156 C 74.582031 204.921875 75.082031 205.058594 75.601562 205.199219 C 75.894531 205.28125 76.195312 205.367188 76.496094 205.441406 C 76.988281 205.570312 77.484375 205.695312 77.996094 205.824219 C 78.328125 205.90625 78.667969 205.992188 79.007812 206.078125 C 79.515625 206.203125 80.027344 206.332031 80.554688 206.449219 C 80.914062 206.53125 81.273438 206.617188 81.636719 206.703125 C 82.179688 206.820312 82.730469 206.945312 83.292969 207.074219 C 83.660156 207.148438 84.035156 207.230469 84.410156 207.316406 C 85.011719 207.445312 85.628906 207.570312 86.246094 207.6875 C 86.613281 207.773438 86.96875 207.847656 87.347656 207.921875 C 88.035156 208.058594 88.753906 208.195312 89.46875 208.335938 C 89.796875 208.398438 90.113281 208.449219 90.449219 208.515625 C 91.507812 208.714844 92.59375 208.917969 93.714844 209.109375 C 106.691406 211.363281 121.875 213.089844 138.402344 214.234375 C 139.40625 214.308594 140.40625 214.375 141.417969 214.449219 C 142.214844 214.488281 143.015625 214.542969 143.820312 214.597656 C 145.105469 214.671875 146.402344 214.746094 147.707031 214.820312 C 148.296875 214.851562 148.882812 214.882812 149.480469 214.914062 C 151.09375 215 152.722656 215.074219 154.363281 215.148438 C 154.785156 215.167969 155.207031 215.191406 155.628906 215.199219 C 157.425781 215.285156 159.238281 215.359375 161.058594 215.410156 C 161.335938 215.433594 161.609375 215.433594 161.886719 215.445312 C 163.707031 215.507812 165.5625 215.558594 167.417969 215.613281 C 167.671875 215.625 167.9375 215.625 168.191406 215.632812 C 170.074219 215.675781 171.972656 215.71875 173.878906 215.75 C 174.101562 215.75 174.324219 215.761719 174.546875 215.761719 C 176.527344 215.792969 178.519531 215.824219 180.511719 215.847656 L 180.945312 215.847656 C 183.085938 215.867188 185.238281 215.867188 187.398438 215.867188 C 189.605469 215.867188 191.808594 215.867188 194 215.847656 C 226.867188 215.558594 257.585938 213.199219 281.078125 209.109375 C 282.136719 208.925781 283.164062 208.738281 284.171875 208.546875 C 284.234375 208.546875 284.296875 208.523438 284.351562 208.515625 C 284.691406 208.449219 285.007812 208.398438 285.335938 208.335938 C 285.929688 208.21875 286.53125 208.101562 287.117188 207.984375 C 287.234375 207.964844 287.339844 207.941406 287.453125 207.921875 C 287.835938 207.847656 288.195312 207.773438 288.558594 207.6875 C 289 207.601562 289.457031 207.507812 289.890625 207.421875 C 290.0625 207.378906 290.230469 207.347656 290.402344 207.304688 C 290.769531 207.230469 291.140625 207.148438 291.503906 207.074219 C 291.839844 206.988281 292.203125 206.914062 292.53125 206.839844 C 292.753906 206.796875 292.964844 206.746094 293.175781 206.691406 C 293.535156 206.617188 293.886719 206.53125 294.246094 206.449219 C 294.5 206.382812 294.777344 206.332031 295.019531 206.269531 C 295.296875 206.203125 295.550781 206.140625 295.804688 206.078125 C 296.144531 205.992188 296.484375 205.90625 296.800781 205.824219 C 296.992188 205.78125 297.203125 205.726562 297.382812 205.683594 C 297.691406 205.601562 297.988281 205.515625 298.292969 205.441406 C 298.601562 205.367188 298.898438 205.28125 299.195312 205.199219 C 299.332031 205.164062 299.480469 205.125 299.617188 205.09375 C 299.914062 205.007812 300.191406 204.933594 300.488281 204.847656 C 300.5625 204.828125 300.636719 204.804688 300.710938 204.785156 C 300.953125 204.710938 301.207031 204.648438 301.453125 204.574219 C 301.535156 204.550781 301.621094 204.519531 301.707031 204.5 C 302.003906 204.414062 302.269531 204.328125 302.554688 204.246094 C 302.808594 204.171875 303.074219 204.085938 303.328125 204.011719 C 303.402344 203.988281 303.476562 203.96875 303.550781 203.949219 C 303.59375 203.925781 303.632812 203.914062 303.675781 203.90625 C 303.953125 203.808594 304.21875 203.726562 304.480469 203.640625 C 304.832031 203.535156 305.179688 203.417969 305.519531 203.300781 C 305.542969 203.289062 305.574219 203.28125 305.605469 203.269531 C 305.847656 203.195312 306.0625 203.109375 306.292969 203.035156 C 306.613281 202.917969 306.941406 202.8125 307.246094 202.695312 C 307.3125 202.675781 307.363281 202.664062 307.429688 202.644531 C 307.617188 202.570312 307.796875 202.496094 307.988281 202.421875 C 308.285156 202.316406 308.582031 202.210938 308.867188 202.09375 L 309.125 201.996094 C 309.324219 201.921875 309.503906 201.847656 309.683594 201.765625 C 309.917969 201.679688 310.152344 201.585938 310.375 201.488281 C 310.480469 201.445312 310.597656 201.394531 310.703125 201.351562 C 310.882812 201.277344 311.0625 201.191406 311.242188 201.117188 C 311.410156 201.042969 311.59375 200.96875 311.773438 200.886719 C 311.898438 200.820312 312.027344 200.769531 312.164062 200.707031 C 312.332031 200.632812 312.492188 200.558594 312.660156 200.472656 C 312.789062 200.410156 312.925781 200.34375 313.054688 200.28125 C 313.214844 200.207031 313.359375 200.132812 313.5 200.058594 C 313.65625 199.984375 313.816406 199.910156 313.953125 199.835938 L 314.144531 199.742188 C 308.5625 264.765625 253.84375 315.964844 187.398438 315.964844 Z M 222.015625 328.859375 L 152.777344 328.859375 L 152.777344 319.960938 C 163.835938 322.882812 175.4375 324.441406 187.398438 324.441406 C 199.363281 324.441406 210.953125 322.882812 222.015625 319.960938 Z M 78.824219 179.300781 C 79.144531 179.300781 79.496094 179.332031 79.929688 179.398438 L 85.378906 180.234375 L 84.789062 174.757812 C 84.578125 172.773438 85 171.164062 85.929688 170.433594 C 86.863281 169.703125 88.15625 170.019531 88.847656 170.265625 L 92.367188 171.546875 L 94.070312 168.207031 C 95.851562 164.710938 96.84375 164.339844 98.671875 164.339844 C 101.21875 164.339844 102.394531 164.554688 103.15625 165.125 C 104.554688 166.183594 106.390625 166.363281 107.957031 165.589844 C 109.027344 165.0625 110.828125 163.640625 110.828125 160.101562 C 110.828125 156.140625 114.0625 152.90625 118.035156 152.90625 C 119.578125 152.90625 121.054688 153.394531 122.296875 154.316406 C 123.707031 155.367188 125.570312 155.523438 127.160156 154.71875 C 128.820312 153.882812 129.894531 152.144531 129.894531 150.289062 C 129.894531 146.316406 133.128906 143.082031 137.097656 143.082031 C 139.890625 143.082031 142.378906 144.652344 143.59375 147.1875 L 151.5 144.230469 C 151.324219 143.582031 151.234375 142.949219 151.234375 142.332031 C 151.234375 138.359375 154.464844 135.125 158.433594 135.125 C 160.796875 135.125 163.011719 136.289062 164.355469 138.242188 L 169.539062 145.714844 L 171.933594 136.941406 C 172.789062 133.820312 175.640625 131.644531 178.871094 131.644531 C 182.433594 131.644531 185.421875 134.199219 185.972656 137.710938 L 186.425781 140.589844 L 189.277344 141.195312 C 189.46875 141.238281 189.660156 141.285156 189.859375 141.332031 L 193.707031 142.246094 L 194.882812 138.480469 C 195.835938 135.46875 198.601562 133.445312 201.757812 133.445312 C 205.042969 133.445312 207.914062 135.671875 208.730469 138.863281 L 211.167969 148.40625 L 216.421875 140.070312 C 217.75 137.960938 220.027344 136.699219 222.503906 136.699219 C 226.023438 136.699219 229 139.207031 229.59375 142.65625 L 230.941406 150.386719 L 236.660156 145.035156 C 238.007812 143.773438 239.753906 143.082031 241.578125 143.082031 C 245.550781 143.082031 248.78125 146.316406 248.78125 150.289062 C 248.78125 152.242188 250.011719 153.945312 251.855469 154.527344 C 253.761719 155.121094 255.859375 154.359375 257.070312 152.632812 C 258.265625 150.894531 260.164062 149.773438 262.261719 149.570312 C 266.222656 149.167969 269.75 152.058594 270.144531 156.011719 C 270.164062 156.140625 270.164062 156.257812 270.164062 156.382812 L 270.441406 165.136719 L 277.09375 159.648438 C 278.195312 158.746094 279.53125 158.195312 280.953125 158.046875 C 284.871094 157.65625 288.421875 160.535156 288.835938 164.46875 L 289.34375 169.417969 L 294.152344 168.125 C 294.589844 168.007812 294.96875 167.933594 295.308594 167.902344 C 299.269531 167.488281 302.800781 170.390625 303.203125 174.34375 C 303.277344 175.054688 303.234375 175.785156 303.097656 176.484375 L 302.070312 181.664062 L 307.34375 181.558594 C 311.03125 181.453125 314.273438 184.324219 314.644531 188.03125 C 314.667969 188.253906 314.675781 188.488281 314.675781 188.730469 L 314.625 188.730469 C 314.328125 190.363281 307.007812 196.128906 278.25 200.992188 C 255.339844 204.859375 225.546875 207.105469 193.78125 207.371094 C 191.660156 207.390625 189.53125 207.390625 187.402344 207.390625 C 185.324219 207.390625 183.257812 207.390625 181.214844 207.371094 C 180.917969 207.371094 180.632812 207.371094 180.34375 207.359375 C 178.480469 207.347656 176.617188 207.316406 174.761719 207.296875 C 174.699219 207.296875 174.632812 207.285156 174.570312 207.285156 C 145.226562 206.789062 117.898438 204.605469 96.546875 200.992188 C 94.753906 200.695312 93.039062 200.375 91.402344 200.070312 C 78.8125 197.683594 71 195.164062 66.332031 193.066406 C 66.644531 193.023438 66.964844 192.992188 67.285156 192.992188 C 67.375 192.992188 67.460938 192.992188 67.550781 193.003906 L 72.789062 193.066406 L 71.765625 187.925781 C 71.667969 187.460938 71.625 186.972656 71.625 186.507812 C 71.625 182.535156 74.851562 179.300781 78.824219 179.300781 Z M 323.078125 190.089844 C 323.164062 189.101562 323.171875 188.128906 323.078125 187.183594 C 322.421875 180.648438 317.714844 175.351562 311.65625 173.65625 C 311.644531 173.601562 311.632812 173.546875 311.632812 173.496094 C 310.828125 165.484375 304.089844 159.46875 296.21875 159.382812 C 293.683594 153.066406 287.191406 148.902344 280.089844 149.613281 C 279.117188 149.71875 278.152344 149.898438 277.21875 150.175781 C 274.496094 144.273438 268.234375 140.445312 261.410156 141.132812 C 259.292969 141.34375 257.269531 141.980469 255.445312 142.980469 C 252.808594 138.003906 247.582031 134.605469 241.574219 134.605469 C 239.59375 134.605469 237.664062 134.980469 235.863281 135.683594 C 233.089844 131.15625 228.109375 128.222656 222.503906 128.222656 C 219.398438 128.222656 216.433594 129.128906 213.929688 130.769531 C 211.027344 127.1875 206.597656 124.96875 201.757812 124.96875 C 197.710938 124.96875 193.96875 126.488281 191.152344 129.074219 C 188.269531 125.4375 183.828125 123.167969 178.871094 123.167969 C 174.039062 123.167969 169.597656 125.402344 166.683594 129 C 164.238281 127.484375 161.386719 126.648438 158.429688 126.648438 C 151.953125 126.648438 146.375 130.601562 143.992188 136.226562 C 141.875 135.183594 139.527344 134.605469 137.097656 134.605469 C 130.296875 134.605469 124.492188 138.960938 122.324219 145.023438 C 120.941406 144.632812 119.5 144.429688 118.03125 144.429688 C 110.773438 144.429688 104.648438 149.390625 102.867188 156.140625 C 101.429688 155.90625 100.007812 155.863281 98.667969 155.863281 C 93.347656 155.863281 90.277344 158.429688 88.164062 161.523438 C 85.429688 161.34375 82.820312 162.105469 80.699219 163.757812 C 78.488281 165.496094 77.046875 168.015625 76.5 170.996094 C 73.691406 171.417969 71.128906 172.59375 69.015625 174.300781 C 61.355469 176.886719 51.703125 181.15625 51.703125 188.753906 C 51.703125 248.511719 90.539062 299.371094 144.300781 317.425781 L 144.300781 337.335938 L 230.492188 337.335938 L 230.492188 317.425781 C 283.851562 299.511719 322.503906 249.265625 323.078125 190.089844 "/></g></g></svg>