<svg xmlns="http://www.w3.org/2000/svg" xmlns:xlink="http://www.w3.org/1999/xlink" width="500" zoomAndPan="magnify" viewBox="0 0 375 374.999991" height="500" preserveAspectRatio="xMidYMid meet" version="1.2"><defs><clipPath id="e42623ea62"><path d="M 37.5 69.460938 L 337.5 69.460938 L 337.5 305.515625 L 37.5 305.515625 Z M 37.5 69.460938 "/></clipPath></defs><g id="3011aa5bcb"><g clip-rule="nonzero" clip-path="url(#e42623ea62)"><path style=" stroke:none;fill-rule:nonzero;fill:#000000;fill-opacity:1;" d="M 258.070312 112.210938 C 263.539062 112.210938 263.539062 103.722656 258.070312 103.722656 C 252.609375 103.722656 252.597656 112.210938 258.070312 112.210938 Z M 120.40625 110.898438 C 125.875 110.898438 125.882812 102.40625 120.40625 102.40625 C 114.945312 102.40625 114.9375 110.898438 120.40625 110.898438 Z M 99.003906 143.171875 C 104.464844 143.171875 104.472656 134.679688 99.003906 134.679688 C 93.539062 134.679688 93.53125 143.171875 99.003906 143.171875 Z M 160.917969 125.910156 C 166.375 125.910156 166.398438 117.417969 160.917969 117.417969 C 155.457031 117.417969 155.445312 125.910156 160.917969 125.910156 Z M 175.40625 90.808594 C 180.878906 90.808594 180.878906 82.3125 175.40625 82.3125 C 169.949219 82.3125 169.9375 90.808594 175.40625 90.808594 Z M 248.519531 144.820312 C 253.992188 144.820312 254 136.328125 248.519531 136.328125 C 243.0625 136.328125 243.050781 144.820312 248.519531 144.820312 Z M 221.191406 100.027344 C 226.652344 100.027344 226.664062 91.535156 221.191406 91.535156 C 215.722656 91.535156 215.710938 100.027344 221.191406 100.027344 Z M 187.503906 77.941406 C 119.371094 77.941406 63.941406 112.085938 63.941406 154.058594 L 63.9375 157.707031 C 63.9375 161.941406 67.382812 165.386719 71.621094 165.386719 L 303.394531 165.386719 C 307.625 165.386719 311.070312 161.941406 311.070312 157.707031 L 311.070312 154.058594 C 311.070312 112.085938 255.636719 77.941406 187.507812 77.941406 Z M 303.390625 173.867188 L 71.617188 173.867188 C 62.707031 173.867188 55.457031 166.617188 55.457031 157.707031 L 55.457031 154.058594 C 55.457031 131.085938 69.460938 109.628906 94.875 93.648438 C 119.683594 78.046875 152.574219 69.460938 187.503906 69.460938 C 222.433594 69.460938 255.328125 78.046875 280.132812 93.648438 C 305.550781 109.628906 319.546875 131.085938 319.546875 154.058594 L 319.546875 157.707031 C 319.546875 166.617188 312.292969 173.867188 303.390625 173.867188 Z M 325.640625 188.507812 C 326.203125 188.070312 326.011719 188.242188 325.386719 188.65625 C 324.496094 189.238281 323.59375 189.800781 322.664062 190.320312 C 319.886719 191.835938 316.851562 192.957031 313.714844 193.46875 C 309.050781 194.230469 304.300781 193.53125 300.050781 191.464844 C 295.238281 189.132812 291.496094 185.261719 286.523438 183.140625 C 276.179688 178.710938 263.660156 180.875 255.230469 188.367188 C 255.136719 188.441406 254.996094 188.539062 254.816406 188.65625 C 253.925781 189.238281 253.027344 189.800781 252.09375 190.320312 C 249.316406 191.835938 246.273438 192.957031 243.144531 193.46875 C 238.480469 194.230469 233.734375 193.53125 229.480469 191.464844 C 224.667969 189.132812 220.917969 185.261719 215.957031 183.140625 C 205.609375 178.710938 193.089844 180.875 184.664062 188.367188 C 184.566406 188.441406 184.429688 188.539062 184.25 188.65625 C 183.359375 189.238281 182.445312 189.800781 181.515625 190.320312 C 178.738281 191.835938 175.703125 192.957031 172.578125 193.46875 C 167.914062 194.230469 163.152344 193.53125 158.902344 191.464844 C 154.089844 189.132812 150.347656 185.261719 145.386719 183.140625 C 135.035156 178.710938 122.511719 180.875 114.09375 188.367188 C 113.992188 188.441406 113.855469 188.539062 113.675781 188.65625 C 112.78125 189.238281 111.882812 189.800781 110.941406 190.320312 C 108.167969 191.835938 105.128906 192.957031 102.003906 193.46875 C 97.339844 194.230469 92.582031 193.53125 88.332031 191.464844 C 83.523438 189.132812 79.777344 185.261719 74.8125 183.140625 C 64.394531 178.691406 51.773438 180.894531 43.355469 188.507812 C 39.292969 192.183594 45.3125 198.164062 49.359375 194.507812 C 51.933594 192.183594 56.261719 190.222656 60.007812 189.554688 C 70.941406 187.582031 77.28125 196.054688 86.425781 199.878906 C 97.515625 204.511719 110.644531 201.90625 119.933594 194.507812 C 122.507812 192.183594 126.835938 190.222656 130.578125 189.554688 C 141.515625 187.582031 147.855469 196.054688 157.003906 199.878906 C 168.09375 204.511719 181.21875 201.90625 190.503906 194.507812 C 193.078125 192.183594 197.402344 190.222656 201.15625 189.554688 C 212.085938 187.582031 218.425781 196.054688 227.574219 199.878906 C 238.664062 204.511719 251.785156 201.90625 261.082031 194.507812 C 263.660156 192.183594 267.972656 190.222656 271.726562 189.554688 C 282.664062 187.582031 289.003906 196.054688 298.152344 199.878906 C 309.230469 204.511719 322.367188 201.90625 331.652344 194.507812 C 335.921875 191.101562 329.882812 185.136719 325.640625 188.507812 Z M 51.984375 217.625 C 48.675781 217.625 45.984375 220.320312 45.984375 223.625 L 45.984375 229.148438 C 45.984375 232.457031 48.675781 235.148438 51.984375 235.148438 L 323.023438 235.148438 C 326.328125 235.148438 329.023438 232.457031 329.023438 229.148438 L 329.023438 223.625 C 329.023438 220.320312 326.328125 217.625 323.023438 217.625 Z M 323.023438 243.628906 L 51.984375 243.628906 C 44 243.628906 37.503906 237.140625 37.503906 229.148438 L 37.503906 223.625 C 37.503906 215.644531 44 209.144531 51.984375 209.144531 L 323.023438 209.144531 C 331.003906 209.144531 337.503906 215.644531 337.503906 223.625 L 337.503906 229.148438 C 337.503906 237.140625 331.003906 243.628906 323.023438 243.628906 Z M 71.617188 260.472656 C 67.378906 260.472656 63.933594 263.917969 63.933594 268.148438 L 63.933594 273.460938 C 63.933594 286.457031 74.511719 297.035156 87.511719 297.035156 L 287.484375 297.035156 C 300.492188 297.035156 311.0625 286.457031 311.0625 273.460938 L 311.0625 268.148438 C 311.0625 263.917969 307.617188 260.472656 303.386719 260.472656 Z M 287.488281 305.515625 L 87.515625 305.515625 C 69.839844 305.515625 55.457031 291.132812 55.457031 273.460938 L 55.457031 268.148438 C 55.457031 259.246094 62.707031 251.992188 71.621094 251.992188 L 303.394531 251.992188 C 312.300781 251.992188 319.550781 259.246094 319.550781 268.148438 L 319.550781 273.460938 C 319.550781 291.132812 305.175781 305.515625 287.492188 305.515625 "/></g></g></svg>