<svg xmlns="http://www.w3.org/2000/svg" xmlns:xlink="http://www.w3.org/1999/xlink" width="500" zoomAndPan="magnify" viewBox="0 0 375 374.999991" height="500" preserveAspectRatio="xMidYMid meet" version="1.2"><defs><clipPath id="ec28df92a6"><path d="M 37.5 158 L 337.5 158 L 337.5 329.0625 L 37.5 329.0625 Z M 37.5 158 "/></clipPath><clipPath id="5c7affe3f4"><path d="M 173 46.3125 L 212 46.3125 L 212 141 L 173 141 Z M 173 46.3125 "/></clipPath></defs><g id="6a8baaf880"><path style=" stroke:none;fill-rule:nonzero;fill:#1a1a1a;fill-opacity:1;" d="M 153.285156 226.351562 C 136.066406 239.582031 124.089844 257.125 116.675781 279.984375 C 115.796875 282.707031 117.285156 285.628906 120.003906 286.515625 C 120.535156 286.6875 121.074219 286.769531 121.601562 286.769531 C 123.785156 286.769531 125.8125 285.375 126.523438 283.183594 C 133.269531 262.386719 144.082031 246.484375 159.585938 234.574219 C 161.855469 232.832031 162.28125 229.578125 160.542969 227.308594 C 158.800781 225.035156 155.550781 224.609375 153.285156 226.351562 Z M 153.285156 226.351562 "/><g clip-rule="nonzero" clip-path="url(#ec28df92a6)"><path style=" stroke:none;fill-rule:nonzero;fill:#1a1a1a;fill-opacity:1;" d="M 332.289062 300.347656 L 294.679688 300.347656 C 292.90625 247.582031 252.941406 204.351562 201.648438 197.554688 C 205.109375 191.949219 207.445312 184.15625 208.109375 175.019531 C 208.449219 170.28125 206.164062 165.757812 202.144531 163.214844 C 193.253906 157.585938 181.765625 157.585938 172.875 163.214844 C 168.851562 165.757812 166.566406 170.28125 166.910156 175.019531 C 167.570312 184.15625 169.910156 191.949219 173.371094 197.554688 C 122.078125 204.351562 82.109375 247.582031 80.339844 300.347656 L 42.730469 300.347656 C 39.871094 300.347656 37.554688 302.667969 37.554688 305.53125 C 37.554688 308.394531 39.871094 310.714844 42.730469 310.714844 L 52.339844 310.714844 L 58.214844 322.757812 C 60.085938 326.589844 64.046875 329.066406 68.304688 329.066406 L 306.714844 329.066406 C 310.972656 329.066406 314.929688 326.589844 316.800781 322.757812 L 322.679688 310.714844 L 332.289062 310.714844 C 335.144531 310.714844 337.464844 308.394531 337.464844 305.53125 C 337.464844 302.667969 335.144531 300.347656 332.289062 300.347656 Z M 177.234375 174.269531 C 177.167969 173.351562 177.617188 172.472656 178.402344 171.976562 C 181.167969 170.226562 184.339844 169.351562 187.507812 169.351562 C 190.679688 169.351562 193.847656 170.226562 196.613281 171.976562 C 197.402344 172.472656 197.847656 173.351562 197.78125 174.269531 C 196.742188 188.660156 191.046875 196.621094 187.507812 196.621094 C 183.96875 196.621094 178.273438 188.660156 177.234375 174.269531 Z M 187.507812 206.984375 C 239.710938 206.984375 282.394531 248.539062 284.320312 300.347656 L 90.699219 300.347656 C 92.625 248.539062 135.308594 206.984375 187.507812 206.984375 Z M 307.5 318.207031 C 307.355469 318.503906 307.046875 318.699219 306.714844 318.699219 L 68.304688 318.699219 C 67.972656 318.699219 67.664062 318.503906 67.515625 318.207031 L 63.859375 310.714844 L 311.15625 310.714844 Z M 307.5 318.207031 "/></g><g clip-rule="nonzero" clip-path="url(#5c7affe3f4)"><path style=" stroke:none;fill-rule:nonzero;fill:#1a1a1a;fill-opacity:1;" d="M 189.105469 139.808594 C 189.929688 140.289062 190.828125 140.519531 191.714844 140.519531 C 193.496094 140.519531 195.226562 139.597656 196.1875 137.953125 C 197.632812 135.480469 196.800781 132.308594 194.335938 130.859375 C 188.394531 127.382812 185.046875 123.789062 184.386719 120.183594 C 183.222656 113.855469 189.875 105.566406 196.308594 97.554688 C 207.121094 84.085938 221.925781 65.644531 200.738281 48.136719 C 198.535156 46.316406 195.269531 46.628906 193.453125 48.835938 C 191.632812 51.042969 191.945312 54.3125 194.152344 56.132812 C 206.199219 66.085938 201.601562 74.417969 188.242188 91.058594 C 180.347656 100.890625 172.183594 111.058594 174.203125 122.058594 C 175.457031 128.859375 180.328125 134.664062 189.105469 139.808594 Z M 189.105469 139.808594 "/></g><path style=" stroke:none;fill-rule:nonzero;fill:#1a1a1a;fill-opacity:1;" d="M 146.667969 157.507812 C 147.488281 157.988281 148.386719 158.214844 149.273438 158.214844 C 151.054688 158.214844 152.785156 157.296875 153.746094 155.652344 C 155.191406 153.179688 154.363281 150.003906 151.894531 148.558594 C 146.90625 145.636719 144.101562 142.664062 143.5625 139.730469 C 142.605469 134.53125 148.296875 127.445312 153.796875 120.589844 C 158.867188 114.277344 164.109375 107.746094 166.199219 100.632812 C 168.839844 91.648438 165.929688 83.585938 157.554688 76.664062 C 155.347656 74.839844 152.085938 75.152344 150.265625 77.363281 C 148.449219 79.570312 148.761719 82.835938 150.964844 84.660156 C 161.027344 92.972656 157.308594 99.671875 145.730469 114.097656 C 138.765625 122.769531 131.566406 131.734375 133.382812 141.605469 C 134.507812 147.726562 138.851562 152.925781 146.667969 157.507812 Z M 146.667969 157.507812 "/><path style=" stroke:none;fill-rule:nonzero;fill:#1a1a1a;fill-opacity:1;" d="M 208.160156 141.605469 C 209.285156 147.726562 213.632812 152.925781 221.445312 157.507812 C 222.269531 157.988281 223.167969 158.214844 224.054688 158.214844 C 225.832031 158.214844 227.566406 157.296875 228.527344 155.652344 C 229.972656 153.179688 229.140625 150.003906 226.675781 148.558594 C 221.683594 145.636719 218.882812 142.664062 218.34375 139.730469 C 217.386719 134.53125 223.074219 127.445312 228.578125 120.589844 C 233.648438 114.277344 238.890625 107.746094 240.980469 100.632812 C 243.621094 91.648438 240.710938 83.585938 232.335938 76.664062 C 230.128906 74.839844 226.867188 75.152344 225.046875 77.363281 C 223.226562 79.570312 223.539062 82.835938 225.746094 84.660156 C 235.804688 92.972656 232.089844 99.671875 220.507812 114.097656 C 213.546875 122.769531 206.347656 131.734375 208.160156 141.605469 Z M 208.160156 141.605469 "/></g></svg>