<svg xmlns="http://www.w3.org/2000/svg" xmlns:xlink="http://www.w3.org/1999/xlink" width="500" zoomAndPan="magnify" viewBox="0 0 375 374.999991" height="500" preserveAspectRatio="xMidYMid meet" version="1.2"><defs><clipPath id="f6a48d68d2"><path d="M 37.785156 75.953125 L 336.738281 75.953125 L 336.738281 298.664062 L 37.785156 298.664062 Z M 37.785156 75.953125 "/></clipPath></defs><g id="a7f03e63f5"><g clip-rule="nonzero" clip-path="url(#f6a48d68d2)"><path style=" stroke:none;fill-rule:nonzero;fill:#000000;fill-opacity:1;" d="M 117.238281 230.207031 C 122.695312 230.207031 122.707031 221.726562 117.238281 221.726562 C 111.785156 221.726562 111.773438 230.207031 117.238281 230.207031 Z M 297.050781 276.195312 L 77.476562 276.195312 C 82.167969 280.824219 86.859375 285.4375 91.554688 290.054688 L 282.980469 290.054688 C 287.667969 285.4375 292.359375 280.824219 297.050781 276.195312 Z M 73.15625 267.714844 L 85.890625 267.714844 C 82.171875 265.820312 78.738281 263.132812 76.011719 260.992188 C 74.1875 259.554688 71.59375 257.519531 70.0625 256.726562 C 69.398438 259.003906 71.109375 263.914062 73.15625 267.714844 Z M 101.945312 254.589844 C 102.085938 254.417969 102.238281 254.25 102.378906 254.082031 C 109.570312 245.3125 115.785156 237.746094 123.484375 237.351562 C 127.09375 237.164062 130.472656 238.613281 133.546875 241.660156 C 135.351562 243.449219 137.53125 245.167969 139.914062 246.722656 C 140.765625 243.304688 141.054688 239.734375 141.09375 236.253906 C 141.023438 231.761719 140.566406 227.296875 139.0625 223.039062 C 138.503906 221.453125 136.953125 217.015625 134.71875 216.835938 C 129.304688 216.410156 129.277344 207.933594 134.71875 208.355469 C 147.160156 209.328125 149.425781 226.628906 149.574219 236.253906 C 149.519531 241.238281 148.894531 246.097656 147.453125 250.808594 C 155.257812 254.25 163.558594 255.667969 168.425781 253.042969 C 171.03125 251.625 173.933594 249.261719 176.738281 246.988281 C 182.636719 242.171875 188.742188 237.195312 195.425781 237.925781 C 198.867188 238.304688 201.925781 240.148438 204.507812 243.417969 C 208.128906 248.003906 216.628906 258.738281 223.183594 258.941406 C 225.269531 259.035156 227.269531 257.957031 229.28125 255.710938 C 240.652344 243.089844 249.257812 237.289062 256.269531 237.523438 C 256.617188 237.097656 256.976562 236.675781 257.316406 236.253906 C 221.117188 191.492188 171.136719 193.734375 170.628906 193.765625 L 170.386719 193.777344 L 170.152344 193.765625 C 169.644531 193.734375 119.558594 191.636719 83.464844 236.253906 C 89.03125 243.132812 95.226562 249.285156 101.945312 254.589844 Z M 165.75 185.296875 C 168.140625 185.210938 169.75 185.265625 170.386719 185.296875 C 172.269531 185.210938 182.457031 184.957031 196.453125 188.230469 C 201.109375 186.683594 204.359375 183.167969 206.425781 180.003906 C 201.257812 180.1875 193.5625 180.222656 183.777344 179.613281 C 176.355469 179.15625 170.195312 182.066406 165.75 185.296875 Z M 262.738281 229.507812 C 263.859375 230.863281 264.96875 232.238281 266.070312 233.679688 L 268.039062 236.253906 L 266.070312 238.824219 C 265.457031 239.617188 264.832031 240.402344 264.207031 241.183594 C 264.917969 241.949219 265.59375 242.847656 266.21875 243.925781 C 269.542969 249.71875 275.78125 254.515625 281.074219 255.339844 C 283.65625 255.730469 285.730469 255.179688 287.425781 253.636719 C 287.585938 253.5 287.753906 253.351562 287.921875 253.210938 C 287.363281 248.300781 287.074219 242.613281 287.074219 236.25 C 287.074219 223.9375 288.113281 215.828125 289.382812 210.527344 C 273.417969 216.0625 265.457031 225.601562 262.738281 229.507812 Z M 293.140625 259.894531 C 289.53125 263.183594 284.90625 264.507812 279.761719 263.703125 C 271.90625 262.476562 263.507812 256.230469 258.871094 248.152344 C 257.71875 246.140625 256.679688 246.035156 256.234375 245.992188 C 254.363281 245.800781 248.632812 246.890625 235.582031 261.386719 C 231.84375 265.535156 227.578125 267.566406 222.917969 267.410156 C 213.699219 267.113281 205.429688 258.230469 197.859375 248.671875 C 196.164062 246.53125 194.917969 246.394531 194.503906 246.351562 C 191.359375 246.011719 186.425781 250.015625 182.085938 253.550781 C 178.984375 256.082031 175.765625 258.695312 172.460938 260.484375 C 159.144531 267.695312 137.476562 257.480469 127.582031 247.675781 C 125.816406 245.929688 124.652344 245.78125 123.917969 245.8125 C 119.953125 246.011719 114.34375 252.839844 108.917969 259.449219 C 107.371094 261.332031 105.773438 263.28125 104.121094 265.195312 C 103.246094 266.214844 102.34375 267.050781 101.425781 267.714844 L 303.519531 267.714844 C 305.449219 259.859375 304.316406 256.609375 303.320312 255.984375 C 301.710938 254.960938 296.902344 256.453125 293.144531 259.894531 Z M 332.652344 276.195312 L 309.160156 276.195312 C 302.3125 283.046875 295.683594 290.4375 288.324219 296.691406 C 285.160156 299.382812 280.820312 298.535156 276.847656 298.535156 L 93.953125 298.535156 C 89.777344 298.535156 87.730469 298.195312 84.554688 295.0625 C 78.164062 288.773438 71.777344 282.484375 65.390625 276.195312 L 41.878906 276.195312 C 36.414062 276.195312 36.421875 267.714844 41.878906 267.714844 L 63.742188 267.714844 C 61.433594 262.222656 59.714844 254.726562 64.535156 249.910156 C 69.402344 245.039062 75.691406 249.972656 81.242188 254.324219 C 88.742188 260.222656 93.074219 262.792969 96.265625 260.898438 C 88.339844 254.566406 81.101562 247.167969 74.714844 238.824219 L 72.742188 236.253906 L 74.714844 233.679688 C 100.125 200.511719 132.121094 189.976562 151.996094 186.695312 C 155.5 182.332031 166.96875 170.070312 184.308594 171.164062 C 202.082031 172.273438 212.851562 171.128906 212.957031 171.121094 L 219.371094 170.417969 L 217.457031 176.585938 C 217.308594 177.070312 214.652344 185.402344 207.675781 191.417969 C 222.949219 196.5625 240.800781 205.953125 257.007812 223.050781 C 262.449219 216.007812 274.617188 204.617188 295.535156 200.011719 L 315.554688 195.597656 L 299.535156 207.085938 C 298.914062 208.121094 295.546875 214.695312 295.546875 236.253906 C 295.546875 240.65625 295.695312 244.710938 295.96875 248.351562 C 300.046875 246.847656 304.355469 246.628906 307.828125 248.820312 C 312.707031 251.890625 314.15625 258.242188 312.199219 267.714844 L 332.652344 267.714844 C 338.117188 267.714844 338.105469 276.195312 332.652344 276.195312 Z M 214.300781 77.160156 C 205.992188 85.195312 203.058594 98.085938 208.996094 108.316406 C 213.625 116.304688 222.1875 121.015625 220.039062 131.519531 C 219.222656 135.503906 217.105469 139.636719 214.300781 142.628906 C 210.585938 146.613281 216.566406 152.621094 220.304688 148.628906 C 227.746094 140.65625 231.347656 128.5 226.816406 118.234375 C 223.128906 109.910156 213.019531 104.765625 214.324219 94.625 C 214.863281 90.398438 217.234375 86.117188 220.304688 83.15625 C 224.242188 79.359375 218.238281 73.367188 214.300781 77.160156 Z M 184.265625 77.160156 C 175.945312 85.195312 173.023438 98.085938 178.953125 108.316406 C 183.589844 116.304688 192.140625 121.015625 189.992188 131.519531 C 189.179688 135.503906 187.0625 139.636719 184.265625 142.628906 C 180.539062 146.613281 186.53125 152.621094 190.257812 148.628906 C 197.710938 140.65625 201.3125 128.5 196.769531 118.234375 C 193.085938 109.910156 182.972656 104.765625 184.285156 94.625 C 184.828125 90.398438 187.199219 86.117188 190.257812 83.15625 C 194.195312 79.359375 188.195312 73.367188 184.265625 77.160156 Z M 154.21875 77.160156 C 158.160156 73.371094 164.152344 79.363281 160.222656 83.15625 C 157.152344 86.117188 154.78125 90.398438 154.242188 94.625 C 152.9375 104.765625 163.050781 109.910156 166.734375 118.234375 C 171.265625 128.5 167.664062 140.65625 160.222656 148.628906 C 156.484375 152.621094 150.503906 146.613281 154.21875 142.628906 C 157.027344 139.636719 159.132812 135.503906 159.949219 131.519531 C 162.105469 121.015625 153.542969 116.304688 148.914062 108.316406 C 142.980469 98.085938 145.898438 85.195312 154.21875 77.160156 "/></g></g></svg>