<svg xmlns="http://www.w3.org/2000/svg" xmlns:xlink="http://www.w3.org/1999/xlink" width="500" zoomAndPan="magnify" viewBox="0 0 375 374.999991" height="500" preserveAspectRatio="xMidYMid meet" version="1.2"><defs><clipPath id="b1fe284641"><path d="M 76 37.5 L 298.703125 37.5 L 298.703125 337.5 L 76 337.5 Z M 76 37.5 "/></clipPath></defs><g id="ccbe8b77a2"><g clip-rule="nonzero" clip-path="url(#b1fe284641)"><path style=" stroke:none;fill-rule:nonzero;fill:#000000;fill-opacity:1;" d="M 293.546875 90.664062 L 298.304688 75.085938 C 298.5 74.597656 298.609375 74.058594 298.609375 73.507812 L 298.609375 42.21875 C 298.609375 39.863281 296.699219 37.949219 294.347656 37.949219 C 293.03125 37.949219 291.859375 38.539062 291.074219 39.480469 L 276.511719 54.492188 L 261.71875 39.25 C 260.082031 37.566406 257.386719 37.53125 255.707031 39.167969 L 240.839844 54.484375 L 226.050781 39.25 C 224.414062 37.566406 221.71875 37.53125 220.039062 39.167969 L 205.171875 54.492188 L 190.363281 39.25 C 188.726562 37.566406 186.03125 37.53125 184.351562 39.167969 L 169.480469 54.484375 L 154.695312 39.25 C 153.058594 37.566406 150.363281 37.53125 148.683594 39.167969 L 133.796875 54.484375 L 119.011719 39.25 C 117.375 37.566406 114.679688 37.53125 113 39.167969 L 98.125 54.484375 L 83.328125 39.25 C 81.695312 37.566406 79 37.53125 77.316406 39.167969 C 76.460938 40.003906 76.035156 41.113281 76.019531 42.21875 L 76.019531 73.507812 C 76.019531 73.789062 76.046875 74.066406 76.101562 74.328125 C 76.101562 74.335938 76.101562 74.335938 76.101562 74.34375 C 76.152344 74.605469 76.226562 74.851562 76.324219 75.089844 C 76.324219 75.097656 76.332031 75.105469 76.332031 75.121094 L 81.082031 90.664062 L 81.082031 284.417969 L 76.332031 299.953125 C 76.332031 299.960938 76.324219 299.96875 76.324219 299.976562 C 76.226562 300.214844 76.152344 300.46875 76.101562 300.730469 C 76.101562 300.730469 76.101562 300.738281 76.101562 300.738281 C 76.046875 301.007812 76.019531 301.285156 76.019531 301.570312 L 76.035156 332.855469 C 76.035156 333.960938 76.464844 335.078125 77.316406 335.90625 C 79 337.542969 81.695312 337.507812 83.328125 335.824219 L 98.117188 320.589844 L 112.992188 335.90625 C 114.671875 337.542969 117.367188 337.507812 119.003906 335.824219 L 133.792969 320.589844 L 148.660156 335.90625 C 150.339844 337.542969 153.035156 337.507812 154.671875 335.824219 L 169.457031 320.589844 L 184.328125 335.90625 C 186.007812 337.542969 188.703125 337.507812 190.339844 335.824219 L 205.132812 320.582031 L 220.003906 335.90625 C 221.683594 337.542969 224.378906 337.507812 226.015625 335.824219 L 240.800781 320.589844 L 255.667969 335.90625 C 257.351562 337.542969 260.046875 337.507812 261.679688 335.824219 L 276.476562 320.589844 L 291.039062 335.601562 C 291.824219 336.535156 292.996094 337.132812 294.308594 337.132812 C 296.660156 337.132812 298.574219 335.21875 298.574219 332.863281 L 298.574219 301.578125 C 298.574219 301.023438 298.460938 300.492188 298.265625 300.003906 L 293.511719 284.425781 L 293.511719 90.664062 Z M 86.03125 297.296875 L 88.484375 289.265625 L 286.148438 289.265625 L 288.597656 297.296875 Z M 285.019531 94.351562 L 285.019531 280.714844 L 89.617188 280.714844 L 89.617188 94.351562 Z M 288.597656 77.777344 L 286.140625 85.808594 L 88.488281 85.808594 L 86.03125 77.777344 Z M 95.152344 63.65625 C 96.832031 65.292969 99.527344 65.257812 101.164062 63.574219 L 115.957031 48.332031 L 130.832031 63.65625 C 132.515625 65.292969 135.210938 65.257812 136.84375 63.574219 L 151.632812 48.335938 L 166.5 63.65625 C 168.179688 65.292969 170.878906 65.257812 172.511719 63.574219 L 187.300781 48.335938 L 202.175781 63.65625 C 203.855469 65.292969 206.550781 65.257812 208.1875 63.574219 L 222.972656 48.335938 L 237.84375 63.65625 C 239.523438 65.292969 242.21875 65.257812 243.855469 63.574219 L 258.640625 48.332031 L 273.519531 63.65625 C 275.199219 65.292969 277.894531 65.257812 279.53125 63.574219 L 290.050781 52.726562 L 290.050781 69.226562 L 84.546875 69.226562 L 84.546875 52.726562 Z M 290.082031 322.347656 L 279.558594 311.5 C 277.925781 309.820312 275.226562 309.78125 273.546875 311.417969 L 258.671875 326.746094 L 243.886719 311.5 C 242.25 309.820312 239.554688 309.78125 237.875 311.417969 L 223.003906 326.738281 L 208.203125 311.5 C 206.566406 309.820312 203.871094 309.78125 202.191406 311.417969 L 187.316406 326.738281 L 172.527344 311.5 C 170.890625 309.820312 168.195312 309.78125 166.515625 311.417969 L 151.648438 326.738281 L 136.859375 311.5 C 135.226562 309.820312 132.527344 309.78125 130.847656 311.417969 L 115.980469 326.746094 L 101.1875 311.5 C 99.550781 309.820312 96.855469 309.78125 95.175781 311.417969 L 84.570312 322.347656 L 84.570312 305.847656 L 290.105469 305.847656 L 290.105469 322.347656 Z M 290.082031 322.347656 "/></g></g></svg>