<svg xmlns="http://www.w3.org/2000/svg" xmlns:xlink="http://www.w3.org/1999/xlink" width="500" zoomAndPan="magnify" viewBox="0 0 375 374.999991" height="500" preserveAspectRatio="xMidYMid meet" version="1.2"><defs><clipPath id="99d7dc113c"><path d="M 37.5 76.226562 L 337.5 76.226562 L 337.5 298.976562 L 37.5 298.976562 Z M 37.5 76.226562 "/></clipPath></defs><g id="24e07201b2"><g clip-rule="nonzero" clip-path="url(#99d7dc113c)"><path style=" stroke:none;fill-rule:nonzero;fill:#000000;fill-opacity:1;" d="M 337.257812 232.25 C 337.257812 232.25 337.257812 232.242188 337.257812 232.25 C 337.257812 232.242188 337.257812 232.242188 337.257812 232.234375 L 337.257812 209.375 C 337.257812 203.882812 335.019531 198.898438 331.394531 195.292969 C 328.609375 192.503906 325.015625 190.539062 321.015625 189.777344 L 308.855469 148.898438 C 311.101562 148.238281 312.59375 146.019531 312.261719 143.628906 C 311.183594 135.820312 307.296875 128.863281 301.683594 123.84375 L 301.390625 123.558594 C 295.675781 118.582031 288.21875 115.554688 280.085938 115.554688 L 228.707031 115.554688 L 228.707031 81.046875 C 228.707031 78.386719 226.550781 76.226562 223.890625 76.226562 L 42.558594 76.226562 C 39.898438 76.226562 37.742188 78.386719 37.742188 81.046875 L 37.742188 280.601562 C 37.742188 283.261719 39.898438 285.417969 42.558594 285.417969 L 68.007812 285.417969 C 69.183594 287.34375 70.578125 289.121094 72.164062 290.703125 C 77.265625 295.808594 84.308594 298.960938 92.082031 298.960938 C 99.863281 298.960938 106.910156 295.808594 112 290.703125 C 113.273438 289.429688 114.425781 288.027344 115.4375 286.527344 C 116.449219 288.027344 117.601562 289.429688 118.875 290.703125 C 123.972656 295.808594 131.019531 298.960938 138.792969 298.960938 C 146.570312 298.960938 153.617188 295.808594 158.710938 290.703125 C 160.296875 289.113281 161.6875 287.34375 162.863281 285.417969 L 258.835938 285.417969 C 260.011719 287.34375 261.40625 289.121094 262.992188 290.703125 C 268.089844 295.808594 275.136719 298.960938 282.910156 298.960938 C 290.683594 298.960938 297.734375 295.808594 302.828125 290.703125 C 304.414062 289.113281 305.808594 287.34375 306.984375 285.410156 L 332.433594 285.410156 C 335.09375 285.410156 337.25 283.253906 337.25 280.59375 L 337.25 260.933594 C 337.25 260.933594 337.25 260.925781 337.25 260.925781 L 337.25 232.25 Z M 306.992188 256.121094 C 306.136719 254.71875 305.164062 253.40625 304.09375 252.1875 L 304.09375 237.0625 L 327.628906 237.0625 L 327.628906 256.121094 Z M 298.882812 149.101562 L 310.886719 189.421875 L 253.65625 189.421875 L 253.65625 149.117188 Z M 280.078125 125.199219 C 285.792969 125.199219 291.042969 127.328125 295.0625 130.835938 L 295.316406 131.046875 C 297.886719 133.355469 299.945312 136.230469 301.269531 139.476562 L 248.832031 139.476562 C 246.175781 139.476562 244.019531 141.636719 244.019531 144.296875 L 244.019531 194.25 C 244.019531 196.910156 246.175781 199.070312 248.832031 199.070312 L 317.324219 199.070312 C 320.164062 199.070312 322.746094 200.222656 324.59375 202.082031 L 324.59375 202.105469 C 326.460938 203.972656 327.628906 206.558594 327.628906 209.382812 L 327.628906 227.429688 L 299.277344 227.429688 C 296.621094 227.429688 294.464844 229.589844 294.464844 232.25 L 294.464844 245.058594 C 292.136719 244.007812 289.632812 243.261719 287.011719 242.878906 C 287 242.878906 286.976562 242.871094 286.960938 242.871094 C 286.382812 242.789062 285.792969 242.726562 285.203125 242.675781 C 285.058594 242.660156 284.925781 242.652344 284.78125 242.644531 C 284.160156 242.609375 283.539062 242.578125 282.910156 242.578125 C 282.28125 242.578125 281.660156 242.609375 281.046875 242.644531 C 280.902344 242.652344 280.769531 242.667969 280.625 242.675781 C 280.035156 242.71875 279.449219 242.789062 278.875 242.871094 C 278.851562 242.871094 278.835938 242.878906 278.8125 242.878906 C 278.148438 242.976562 277.496094 243.09375 276.84375 243.238281 C 271.5 244.414062 266.722656 247.097656 262.992188 250.835938 C 261.40625 252.425781 260.011719 254.195312 258.835938 256.128906 L 228.691406 256.128906 L 228.691406 125.199219 Z M 63.644531 112.433594 C 63.644531 114.667969 62.722656 116.707031 61.246094 118.175781 L 61.046875 118.386719 C 59.601562 119.734375 57.644531 120.566406 55.496094 120.566406 C 53.25 120.566406 51.214844 119.652344 49.753906 118.191406 L 49.730469 118.167969 C 48.261719 116.707031 47.355469 114.667969 47.355469 112.421875 L 47.355469 105.90625 L 63.636719 105.90625 Z M 47.371094 128.210938 C 49.820312 129.488281 52.582031 130.214844 55.511719 130.214844 C 60.230469 130.214844 64.550781 128.332031 67.746094 125.28125 L 68.0625 124.996094 C 68.203125 124.855469 68.339844 124.710938 68.472656 124.5625 C 68.601562 124.695312 68.726562 124.839844 68.863281 124.972656 L 68.886719 124.996094 C 72.113281 128.21875 76.546875 130.222656 81.417969 130.222656 C 86.136719 130.222656 90.457031 128.339844 93.65625 125.289062 L 93.96875 125.003906 C 94.113281 124.863281 94.246094 124.71875 94.382812 124.570312 C 94.507812 124.710938 94.636719 124.847656 94.769531 124.980469 L 94.792969 125.003906 C 98.019531 128.226562 102.453125 130.226562 107.328125 130.226562 C 112.042969 130.226562 116.367188 128.347656 119.5625 125.296875 L 119.878906 125.011719 C 120.019531 124.871094 120.152344 124.726562 120.289062 124.578125 C 120.417969 124.710938 120.542969 124.855469 120.679688 124.988281 L 120.699219 125.011719 C 123.929688 128.234375 128.359375 130.234375 133.234375 130.234375 C 137.953125 130.234375 142.273438 128.355469 145.46875 125.304688 L 145.785156 125.019531 C 145.925781 124.878906 146.0625 124.734375 146.195312 124.585938 C 146.324219 124.726562 146.453125 124.863281 146.585938 124.996094 L 146.609375 125.019531 C 149.835938 128.242188 154.269531 130.242188 159.144531 130.242188 C 163.859375 130.242188 168.179688 128.363281 171.378906 125.3125 L 171.691406 125.027344 C 171.835938 124.882812 171.96875 124.742188 172.105469 124.59375 C 172.230469 124.726562 172.359375 124.871094 172.496094 125.003906 L 172.515625 125.027344 C 175.742188 128.25 180.175781 130.25 185.050781 130.25 C 189.769531 130.25 194.089844 128.371094 197.285156 125.320312 L 197.601562 125.035156 C 197.742188 124.890625 197.878906 124.75 198.011719 124.601562 C 198.140625 124.742188 198.265625 124.878906 198.402344 125.011719 L 198.425781 125.035156 C 201.652344 128.257812 206.085938 130.257812 210.960938 130.257812 C 213.886719 130.257812 216.648438 129.539062 219.097656 128.265625 L 219.097656 189.46875 L 212.675781 189.46875 L 212.675781 163.835938 C 212.675781 161.175781 210.519531 159.015625 207.859375 159.015625 L 204.046875 159.015625 L 204.046875 156.59375 C 204.046875 153.933594 201.890625 151.777344 199.234375 151.777344 C 196.574219 151.777344 194.417969 153.933594 194.417969 156.59375 L 194.417969 159.015625 L 190.609375 159.015625 C 187.949219 159.015625 185.792969 161.175781 185.792969 163.835938 L 185.792969 189.46875 L 181.058594 189.46875 L 181.058594 163.835938 C 181.058594 161.175781 178.902344 159.015625 176.246094 159.015625 L 172.433594 159.015625 L 172.433594 156.59375 C 172.433594 153.933594 170.277344 151.777344 167.621094 151.777344 C 164.960938 151.777344 162.804688 153.933594 162.804688 156.59375 L 162.804688 159.015625 L 158.992188 159.015625 C 156.335938 159.015625 154.179688 161.175781 154.179688 163.835938 L 154.179688 189.46875 L 119.734375 189.46875 L 119.734375 170.394531 C 119.734375 167.734375 117.578125 165.574219 114.921875 165.574219 L 61.570312 165.574219 C 58.910156 165.574219 56.753906 167.734375 56.753906 170.394531 L 56.753906 189.46875 L 47.371094 189.46875 Z M 73.273438 105.90625 L 89.550781 105.90625 L 89.550781 112.433594 C 89.550781 114.667969 88.628906 116.707031 87.15625 118.183594 L 86.953125 118.394531 C 85.507812 119.742188 83.554688 120.574219 81.40625 120.574219 C 79.160156 120.574219 77.121094 119.660156 75.660156 118.199219 L 75.640625 118.175781 C 74.171875 116.714844 73.265625 114.675781 73.265625 112.429688 L 73.265625 105.90625 Z M 115.453125 112.433594 C 115.453125 114.667969 114.53125 116.707031 113.054688 118.175781 L 112.855469 118.386719 C 111.410156 119.734375 109.453125 120.566406 107.304688 120.566406 C 105.058594 120.566406 103.023438 119.652344 101.5625 118.191406 L 101.539062 118.167969 C 100.070312 116.707031 99.164062 114.667969 99.164062 112.421875 L 99.164062 105.90625 L 115.445312 105.90625 Z M 125.082031 105.90625 L 141.359375 105.90625 L 141.359375 112.433594 C 141.359375 114.667969 140.4375 116.707031 138.964844 118.183594 L 138.761719 118.394531 C 137.316406 119.742188 135.363281 120.574219 133.214844 120.574219 C 130.964844 120.574219 128.929688 119.660156 127.46875 118.199219 L 127.449219 118.175781 C 125.980469 116.714844 125.074219 114.675781 125.074219 112.429688 L 125.074219 105.90625 Z M 167.261719 112.433594 C 167.261719 114.667969 166.339844 116.707031 164.863281 118.175781 L 164.660156 118.386719 C 163.21875 119.734375 161.261719 120.566406 159.113281 120.566406 C 156.867188 120.566406 154.832031 119.652344 153.371094 118.191406 L 153.347656 118.167969 C 151.878906 116.707031 150.972656 114.667969 150.972656 112.421875 L 150.972656 105.90625 L 167.253906 105.90625 Z M 176.890625 105.90625 L 193.167969 105.90625 L 193.167969 112.433594 C 193.167969 114.667969 192.246094 116.707031 190.773438 118.183594 L 190.570312 118.394531 C 189.125 119.742188 187.171875 120.574219 185.023438 120.574219 C 182.773438 120.574219 180.738281 119.660156 179.277344 118.199219 L 179.261719 118.183594 C 177.796875 116.722656 176.890625 114.683594 176.890625 112.433594 Z M 47.371094 199.0625 L 61.5625 199.0625 C 61.5625 199.0625 61.570312 199.0625 61.570312 199.0625 L 114.921875 199.0625 C 114.921875 199.0625 114.925781 199.0625 114.925781 199.0625 L 219.070312 199.0625 L 219.070312 208.707031 L 47.371094 208.707031 Z M 110.105469 189.421875 L 66.382812 189.421875 L 66.382812 175.160156 L 110.105469 175.160156 Z M 163.777344 168.617188 L 171.402344 168.617188 L 171.402344 189.429688 L 163.777344 189.429688 Z M 195.390625 168.617188 L 203.015625 168.617188 L 203.015625 189.429688 L 195.390625 189.429688 Z M 219.070312 112.441406 C 219.070312 114.675781 218.148438 116.707031 216.671875 118.183594 L 216.46875 118.394531 C 215.023438 119.742188 213.070312 120.574219 210.921875 120.574219 C 208.675781 120.574219 206.640625 119.660156 205.179688 118.199219 L 205.15625 118.175781 C 203.6875 116.714844 202.78125 114.675781 202.78125 112.429688 L 202.78125 105.90625 L 219.0625 105.90625 L 219.0625 112.441406 Z M 162.941406 256.121094 C 160.714844 252.203125 157.667969 248.859375 154.058594 246.394531 C 149.648438 243.378906 144.414062 241.625 138.800781 241.625 C 133.183594 241.625 127.949219 243.371094 123.539062 246.394531 C 120.332031 248.582031 117.578125 251.453125 115.4375 254.816406 C 113.304688 251.460938 110.539062 248.589844 107.335938 246.394531 C 102.925781 243.378906 97.691406 241.625 92.074219 241.625 C 86.457031 241.625 81.226562 243.371094 76.816406 246.394531 C 73.207031 248.859375 70.15625 252.195312 67.933594 256.121094 L 47.371094 256.121094 L 47.371094 218.347656 L 219.070312 218.347656 L 219.070312 256.121094 Z M 219.070312 85.867188 L 219.070312 96.269531 L 47.371094 96.269531 L 47.371094 85.867188 Z M 64.363281 275.78125 L 47.371094 275.78125 L 47.371094 265.757812 L 64.363281 265.757812 C 64.355469 265.820312 64.347656 265.871094 64.332031 265.933594 C 64.28125 266.230469 64.234375 266.539062 64.191406 266.839844 C 64.167969 266.996094 64.144531 267.160156 64.128906 267.320312 C 64.101562 267.582031 64.0625 267.84375 64.039062 268.105469 C 64.019531 268.339844 64.003906 268.578125 63.988281 268.808594 C 63.972656 269.011719 63.957031 269.214844 63.949219 269.417969 C 63.929688 269.867188 63.914062 270.316406 63.914062 270.765625 C 63.914062 271.214844 63.929688 271.664062 63.949219 272.117188 C 63.957031 272.316406 63.980469 272.511719 63.988281 272.714844 C 64.003906 272.953125 64.019531 273.1875 64.039062 273.425781 C 64.0625 273.6875 64.101562 273.953125 64.128906 274.207031 C 64.152344 274.371094 64.167969 274.535156 64.191406 274.695312 C 64.234375 274.992188 64.28125 275.292969 64.332031 275.59375 C 64.339844 275.660156 64.347656 275.71875 64.363281 275.78125 Z M 92.082031 289.324219 C 86.960938 289.324219 82.324219 287.246094 78.972656 283.890625 C 76.246094 281.160156 74.367188 277.59375 73.757812 273.597656 C 73.757812 273.585938 73.753906 273.5625 73.753906 273.546875 C 73.707031 273.261719 73.675781 272.984375 73.648438 272.699219 C 73.632812 272.585938 73.632812 272.46875 73.617188 272.355469 C 73.601562 272.160156 73.578125 271.957031 73.574219 271.761719 C 73.558594 271.433594 73.542969 271.109375 73.542969 270.773438 C 73.542969 270.4375 73.550781 270.113281 73.574219 269.785156 C 73.578125 269.582031 73.601562 269.386719 73.617188 269.183594 C 73.625 269.074219 73.632812 268.953125 73.648438 268.839844 C 73.675781 268.554688 73.714844 268.269531 73.753906 267.984375 C 73.753906 267.96875 73.757812 267.949219 73.757812 267.933594 C 74.375 263.945312 76.253906 260.371094 78.972656 257.644531 C 82.324219 254.285156 86.960938 252.207031 92.082031 252.207031 C 97.203125 252.207031 101.839844 254.285156 105.195312 257.644531 C 107.917969 260.371094 109.796875 263.9375 110.40625 267.933594 C 110.40625 267.957031 110.414062 267.96875 110.414062 267.992188 C 110.457031 268.269531 110.488281 268.554688 110.515625 268.839844 C 110.53125 268.953125 110.53125 269.066406 110.546875 269.183594 C 110.5625 269.386719 110.585938 269.582031 110.59375 269.785156 C 110.605469 270.113281 110.621094 270.4375 110.621094 270.773438 C 110.621094 271.105469 110.613281 271.433594 110.59375 271.753906 C 110.585938 271.957031 110.5625 272.167969 110.546875 272.371094 C 110.539062 272.484375 110.53125 272.585938 110.515625 272.699219 C 110.488281 272.992188 110.449219 273.277344 110.40625 273.5625 C 110.40625 273.578125 110.398438 273.59375 110.398438 273.605469 C 109.785156 277.601562 107.902344 281.167969 105.179688 283.898438 C 101.839844 287.246094 97.203125 289.324219 92.082031 289.324219 Z M 138.800781 289.324219 C 133.675781 289.324219 129.042969 287.246094 125.6875 283.890625 C 122.960938 281.160156 121.082031 277.585938 120.46875 273.597656 C 120.46875 273.585938 120.46875 273.578125 120.460938 273.5625 C 120.417969 273.269531 120.378906 272.984375 120.347656 272.691406 C 120.339844 272.59375 120.332031 272.488281 120.328125 272.394531 C 120.3125 272.183594 120.289062 271.964844 120.28125 271.753906 C 120.265625 271.433594 120.25 271.105469 120.25 270.773438 C 120.25 270.445312 120.257812 270.113281 120.28125 269.792969 C 120.289062 269.574219 120.3125 269.363281 120.332031 269.148438 C 120.339844 269.050781 120.347656 268.945312 120.355469 268.847656 C 120.386719 268.554688 120.421875 268.261719 120.46875 267.96875 C 120.46875 267.964844 120.46875 267.949219 120.476562 267.941406 C 121.089844 263.945312 122.96875 260.378906 125.695312 257.648438 C 129.050781 254.292969 133.683594 252.214844 138.804688 252.214844 C 143.929688 252.214844 148.5625 254.292969 151.917969 257.648438 C 154.636719 260.371094 156.523438 263.945312 157.128906 267.933594 C 157.136719 267.964844 157.136719 267.984375 157.136719 268.015625 C 157.175781 268.292969 157.210938 268.5625 157.242188 268.839844 C 157.257812 268.96875 157.265625 269.085938 157.273438 269.214844 C 157.285156 269.402344 157.300781 269.589844 157.316406 269.785156 C 157.332031 270.113281 157.347656 270.445312 157.347656 270.773438 C 157.347656 271.105469 157.339844 271.433594 157.316406 271.761719 C 157.308594 271.957031 157.285156 272.152344 157.273438 272.347656 C 157.265625 272.46875 157.257812 272.585938 157.242188 272.707031 C 157.210938 272.992188 157.175781 273.269531 157.136719 273.546875 C 157.136719 273.570312 157.128906 273.59375 157.128906 273.613281 C 156.515625 277.601562 154.636719 281.175781 151.917969 283.898438 C 148.554688 287.246094 143.921875 289.324219 138.800781 289.324219 Z M 255.199219 275.78125 L 166.519531 275.78125 C 166.527344 275.71875 166.535156 275.660156 166.550781 275.609375 C 166.601562 275.308594 166.644531 275.007812 166.691406 274.699219 C 166.714844 274.535156 166.734375 274.378906 166.75 274.214844 C 166.78125 273.953125 166.820312 273.6875 166.839844 273.425781 C 166.863281 273.195312 166.878906 272.953125 166.894531 272.722656 C 166.910156 272.519531 166.921875 272.324219 166.929688 272.121094 C 166.953125 271.671875 166.96875 271.222656 166.96875 270.773438 C 166.96875 270.324219 166.953125 269.875 166.929688 269.425781 C 166.921875 269.222656 166.902344 269.019531 166.894531 268.824219 C 166.878906 268.585938 166.863281 268.351562 166.839844 268.121094 C 166.820312 267.859375 166.78125 267.597656 166.75 267.332031 C 166.730469 267.167969 166.714844 267.011719 166.691406 266.847656 C 166.644531 266.546875 166.601562 266.238281 166.550781 265.941406 C 166.542969 265.878906 166.535156 265.820312 166.519531 265.765625 L 223.875 265.765625 C 223.882812 265.765625 223.882812 265.765625 223.890625 265.765625 L 255.207031 265.765625 C 255.199219 265.828125 255.191406 265.886719 255.175781 265.945312 C 255.121094 266.246094 255.078125 266.546875 255.03125 266.847656 C 255.011719 267.011719 254.988281 267.175781 254.972656 267.332031 C 254.941406 267.597656 254.914062 267.851562 254.882812 268.113281 C 254.859375 268.351562 254.847656 268.585938 254.832031 268.824219 C 254.816406 269.027344 254.800781 269.222656 254.792969 269.425781 C 254.769531 269.875 254.757812 270.324219 254.757812 270.773438 C 254.757812 271.222656 254.769531 271.671875 254.792969 272.121094 C 254.800781 272.324219 254.824219 272.519531 254.832031 272.722656 C 254.847656 272.960938 254.859375 273.195312 254.882812 273.433594 C 254.90625 273.695312 254.941406 273.960938 254.972656 274.214844 C 254.996094 274.378906 255.011719 274.542969 255.03125 274.699219 C 255.078125 275 255.121094 275.300781 255.175781 275.601562 C 255.175781 275.660156 255.183594 275.71875 255.199219 275.78125 Z M 282.917969 289.324219 C 277.796875 289.324219 273.160156 287.246094 269.804688 283.890625 C 267.082031 281.160156 265.203125 277.585938 264.585938 273.597656 C 264.585938 273.59375 264.585938 273.578125 264.578125 273.570312 C 264.535156 273.277344 264.496094 272.984375 264.46875 272.691406 C 264.460938 272.59375 264.453125 272.488281 264.445312 272.394531 C 264.429688 272.183594 264.40625 271.964844 264.398438 271.753906 C 264.386719 271.433594 264.371094 271.105469 264.371094 270.773438 C 264.371094 270.445312 264.378906 270.113281 264.398438 269.792969 C 264.40625 269.574219 264.429688 269.363281 264.453125 269.148438 C 264.460938 269.050781 264.46875 268.945312 264.476562 268.847656 C 264.503906 268.554688 264.542969 268.261719 264.585938 267.96875 C 264.585938 267.964844 264.585938 267.949219 264.59375 267.941406 C 265.207031 263.945312 267.089844 260.371094 269.8125 257.648438 C 272.089844 255.371094 274.957031 253.683594 278.164062 252.839844 C 278.253906 252.816406 278.34375 252.792969 278.425781 252.769531 C 278.65625 252.710938 278.898438 252.660156 279.128906 252.605469 C 279.449219 252.539062 279.773438 252.480469 280.101562 252.433594 C 280.230469 252.410156 280.363281 252.402344 280.492188 252.382812 C 280.777344 252.34375 281.054688 252.3125 281.335938 252.292969 C 281.457031 252.285156 281.585938 252.269531 281.703125 252.261719 C 282.101562 252.238281 282.507812 252.214844 282.917969 252.214844 C 283.320312 252.214844 283.726562 252.230469 284.128906 252.261719 C 284.25 252.269531 284.371094 252.277344 284.496094 252.292969 C 284.78125 252.3125 285.066406 252.34375 285.351562 252.382812 C 285.480469 252.394531 285.605469 252.410156 285.734375 252.433594 C 286.0625 252.484375 286.382812 252.546875 286.714844 252.613281 C 286.945312 252.660156 287.179688 252.71875 287.402344 252.769531 C 287.5 252.792969 287.597656 252.816406 287.6875 252.847656 C 290.890625 253.699219 293.761719 255.386719 296.027344 257.65625 C 298.753906 260.386719 300.632812 263.953125 301.242188 267.949219 C 301.242188 267.964844 301.246094 267.984375 301.246094 268 C 301.292969 268.285156 301.324219 268.5625 301.351562 268.855469 C 301.367188 268.96875 301.367188 269.085938 301.382812 269.199219 C 301.398438 269.394531 301.421875 269.597656 301.425781 269.792969 C 301.441406 270.121094 301.457031 270.445312 301.457031 270.78125 C 301.457031 271.109375 301.449219 271.441406 301.425781 271.769531 C 301.421875 271.972656 301.398438 272.167969 301.382812 272.371094 C 301.375 272.484375 301.367188 272.601562 301.351562 272.714844 C 301.324219 273 301.285156 273.285156 301.246094 273.570312 C 301.246094 273.585938 301.242188 273.605469 301.242188 273.621094 C 300.625 277.609375 298.746094 281.183594 296.027344 283.914062 C 292.675781 287.246094 288.039062 289.324219 282.917969 289.324219 Z M 310.636719 275.78125 C 310.644531 275.71875 310.652344 275.660156 310.667969 275.609375 C 310.71875 275.308594 310.765625 275.007812 310.808594 274.699219 C 310.832031 274.535156 310.855469 274.378906 310.871094 274.214844 C 310.898438 273.953125 310.9375 273.6875 310.960938 273.425781 C 310.980469 273.195312 310.996094 272.953125 311.011719 272.722656 C 311.027344 272.519531 311.042969 272.324219 311.050781 272.121094 C 311.070312 271.671875 311.085938 271.222656 311.085938 270.773438 C 311.085938 270.324219 311.070312 269.875 311.050781 269.425781 C 311.042969 269.222656 311.019531 269.019531 311.011719 268.824219 C 310.996094 268.585938 310.980469 268.351562 310.960938 268.121094 C 310.9375 267.859375 310.898438 267.597656 310.871094 267.332031 C 310.847656 267.167969 310.832031 267.011719 310.808594 266.847656 C 310.765625 266.546875 310.71875 266.238281 310.667969 265.941406 C 310.660156 265.878906 310.652344 265.820312 310.636719 265.765625 L 327.628906 265.765625 L 327.628906 275.789062 L 310.636719 275.789062 Z M 310.636719 275.78125 "/></g></g></svg>